<svg viewBox="0 0 492 243" fill="none" xmlns="http://www.w3.org/2000/svg">
    <g filter="url(#filter0_dd_1001_188)">
        <rect
                x="5.58398"
                y="23.7551"
                width="472.049"
                height="210.142"
                rx="6"
                transform="rotate(-2.7 5.58398 23.7551)"
                fill="#E0E7FF"
        />
        <rect
                x="6.10698"
                y="24.231"
                width="471.049"
                height="209.142"
                rx="5.5"
                transform="rotate(-2.7 6.10698 24.231)"
                stroke="#D1D5DB"
        />
    </g>
    <rect
            x="1.5"
            y="13.5"
            width="489"
            height="209"
            rx="5.5"
            fill="white"
            stroke="#D1D5DB"
    />
    <rect x="58" y="124.909" width="431" height="22" fill="#A7F3D0"/>
    <rect x="1" y="124.909" width="57" height="22" fill="#6EE7B7"/>
    <rect x="58" y="103.024" width="431" height="22" fill="#FECDD3"/>
    <rect x="1" y="103.024" width="57" height="22" fill="#FDA4AF"/>
    <path
            d="M21.229 66.361V75.72H20.053V67.635L17.841 68.979L17.33 68.139L20.2 66.361H21.229ZM23.245 75.041V76H17.68V75.041H23.245ZM19.773 88.207C20.3797 88.207 20.8977 88.3237 21.327 88.557C21.761 88.7903 22.0947 89.11 22.328 89.516C22.5613 89.922 22.678 90.3817 22.678 90.895C22.678 91.3383 22.601 91.7723 22.447 92.197C22.293 92.617 22.0457 93.0603 21.705 93.527C21.369 93.989 20.9257 94.5023 20.375 95.067C19.829 95.6317 19.157 96.2757 18.359 96.999H22.902L22.755 98H17.022V97.041C17.75 96.3457 18.3683 95.7367 18.877 95.214C19.3903 94.6913 19.8127 94.234 20.144 93.842C20.48 93.4453 20.7413 93.086 20.928 92.764C21.1193 92.442 21.2523 92.1363 21.327 91.847C21.4017 91.553 21.439 91.2497 21.439 90.937C21.439 90.3957 21.285 89.9687 20.977 89.656C20.6737 89.3433 20.2537 89.187 19.717 89.187C19.241 89.187 18.8513 89.2687 18.548 89.432C18.2447 89.5953 17.9413 89.8567 17.638 90.216L16.826 89.586C17.2087 89.1193 17.6333 88.774 18.1 88.55C18.5667 88.3213 19.1243 88.207 19.773 88.207ZM19.759 110.207C20.3657 110.207 20.8883 110.317 21.327 110.536C21.7703 110.751 22.1133 111.042 22.356 111.411C22.5987 111.775 22.72 112.176 22.72 112.615C22.72 113.002 22.6337 113.355 22.461 113.672C22.2883 113.989 22.0597 114.251 21.775 114.456C21.4903 114.661 21.1777 114.797 20.837 114.862C21.215 114.89 21.5697 114.997 21.901 115.184C22.2323 115.366 22.503 115.627 22.713 115.968C22.923 116.304 23.028 116.722 23.028 117.221C23.028 117.776 22.888 118.278 22.608 118.726C22.328 119.169 21.936 119.519 21.432 119.776C20.9327 120.033 20.3493 120.161 19.682 120.161C19.1453 120.161 18.6087 120.058 18.072 119.853C17.54 119.648 17.0897 119.321 16.721 118.873L17.512 118.229C17.7873 118.551 18.114 118.791 18.492 118.95C18.8747 119.109 19.262 119.188 19.654 119.188C20.326 119.188 20.851 119.013 21.229 118.663C21.607 118.308 21.796 117.828 21.796 117.221C21.796 116.764 21.7073 116.402 21.53 116.136C21.3573 115.87 21.1217 115.681 20.823 115.569C20.5243 115.452 20.1837 115.394 19.801 115.394H18.989L19.136 114.463H19.703C20.0157 114.463 20.3097 114.405 20.585 114.288C20.865 114.167 21.0937 113.98 21.271 113.728C21.4483 113.476 21.537 113.161 21.537 112.783C21.537 112.251 21.3597 111.845 21.005 111.565C20.6503 111.285 20.221 111.145 19.717 111.145C19.297 111.145 18.9307 111.22 18.618 111.369C18.3053 111.514 17.9903 111.735 17.673 112.034L17.022 111.313C17.4327 110.926 17.869 110.646 18.331 110.473C18.793 110.296 19.269 110.207 19.759 110.207ZM22.818 154.361L22.643 155.299H18.835V158.337C19.129 158.178 19.4067 158.071 19.668 158.015C19.934 157.954 20.2117 157.924 20.501 157.924C21.0237 157.924 21.4833 158.043 21.88 158.281C22.2767 158.514 22.5847 158.857 22.804 159.31C23.0233 159.763 23.133 160.309 23.133 160.948C23.133 161.587 22.9977 162.15 22.727 162.635C22.461 163.12 22.0853 163.496 21.6 163.762C21.1147 164.028 20.5383 164.161 19.871 164.161C19.2923 164.161 18.7743 164.058 18.317 163.853C17.8643 163.648 17.4513 163.363 17.078 162.999L17.806 162.299C18.1 162.598 18.415 162.822 18.751 162.971C19.0917 163.116 19.4697 163.188 19.885 163.188C20.5197 163.188 21.0143 162.997 21.369 162.614C21.7237 162.227 21.901 161.66 21.901 160.913C21.901 160.395 21.824 159.987 21.67 159.688C21.516 159.389 21.306 159.177 21.04 159.051C20.7787 158.92 20.487 158.855 20.165 158.855C19.8803 158.855 19.6283 158.883 19.409 158.939C19.1897 158.99 18.94 159.07 18.66 159.177H17.715V154.361H22.818ZM20.697 176.207C21.0703 176.207 21.4133 176.256 21.726 176.354C22.0387 176.447 22.3303 176.585 22.601 176.767L22.139 177.565C21.9197 177.43 21.6863 177.329 21.439 177.264C21.1963 177.194 20.942 177.159 20.676 177.159C20.1627 177.159 19.7263 177.332 19.367 177.677C19.0077 178.018 18.737 178.501 18.555 179.126C18.373 179.747 18.2843 180.477 18.289 181.317L18.303 181.772C18.303 182.957 18.4593 183.828 18.772 184.383C19.0847 184.934 19.5957 185.209 20.305 185.209C20.9163 185.209 21.3737 184.992 21.677 184.558C21.985 184.124 22.139 183.534 22.139 182.787C22.139 182.26 22.0667 181.844 21.922 181.541C21.782 181.233 21.5837 181.014 21.327 180.883C21.0703 180.752 20.7717 180.687 20.431 180.687C19.9317 180.687 19.4907 180.836 19.108 181.135C18.7253 181.434 18.415 181.816 18.177 182.283L18.149 181.247C18.4663 180.706 18.828 180.316 19.234 180.078C19.64 179.84 20.0997 179.721 20.613 179.721C21.1123 179.721 21.5673 179.831 21.978 180.05C22.3887 180.269 22.7177 180.605 22.965 181.058C23.217 181.506 23.343 182.073 23.343 182.759C23.343 183.468 23.2077 184.077 22.937 184.586C22.6663 185.09 22.3 185.48 21.838 185.755C21.376 186.026 20.8673 186.161 20.312 186.161C19.724 186.161 19.227 186.051 18.821 185.832C18.415 185.608 18.086 185.291 17.834 184.88C17.582 184.465 17.3977 183.968 17.281 183.389C17.169 182.806 17.113 182.157 17.113 181.443C17.113 180.379 17.253 179.455 17.533 178.671C17.8177 177.887 18.226 177.28 18.758 176.851C19.2947 176.422 19.941 176.207 20.697 176.207ZM19.227 208.133L18.128 207.797L21.887 199.341H17.365V198.361H23.07V199.264L19.227 208.133Z"
            fill="#9CA3AF"
    />
    <path
            d="M46.229 66.361V75.72H45.053V67.635L42.841 68.979L42.33 68.139L45.2 66.361H46.229ZM48.245 75.041V76H42.68V75.041H48.245ZM44.773 88.207C45.3797 88.207 45.8977 88.3237 46.327 88.557C46.761 88.7903 47.0947 89.11 47.328 89.516C47.5613 89.922 47.678 90.3817 47.678 90.895C47.678 91.3383 47.601 91.7723 47.447 92.197C47.293 92.617 47.0457 93.0603 46.705 93.527C46.369 93.989 45.9257 94.5023 45.375 95.067C44.829 95.6317 44.157 96.2757 43.359 96.999H47.902L47.755 98H42.022V97.041C42.75 96.3457 43.3683 95.7367 43.877 95.214C44.3903 94.6913 44.8127 94.234 45.144 93.842C45.48 93.4453 45.7413 93.086 45.928 92.764C46.1193 92.442 46.2523 92.1363 46.327 91.847C46.4017 91.553 46.439 91.2497 46.439 90.937C46.439 90.3957 46.285 89.9687 45.977 89.656C45.6737 89.3433 45.2537 89.187 44.717 89.187C44.241 89.187 43.8513 89.2687 43.548 89.432C43.2447 89.5953 42.9413 89.8567 42.638 90.216L41.826 89.586C42.2087 89.1193 42.6333 88.774 43.1 88.55C43.5667 88.3213 44.1243 88.207 44.773 88.207ZM44.836 132.207L45.816 132.62L43.254 138.717H48.399V139.655H42.008V138.801L44.836 132.207ZM47.153 135.98V142H46.019L46.012 138.941L46.173 135.98H47.153ZM47.818 154.361L47.643 155.299H43.835V158.337C44.129 158.178 44.4067 158.071 44.668 158.015C44.934 157.954 45.2117 157.924 45.501 157.924C46.0237 157.924 46.4833 158.043 46.88 158.281C47.2767 158.514 47.5847 158.857 47.804 159.31C48.0233 159.763 48.133 160.309 48.133 160.948C48.133 161.587 47.9977 162.15 47.727 162.635C47.461 163.12 47.0853 163.496 46.6 163.762C46.1147 164.028 45.5383 164.161 44.871 164.161C44.2923 164.161 43.7743 164.058 43.317 163.853C42.8643 163.648 42.4513 163.363 42.078 162.999L42.806 162.299C43.1 162.598 43.415 162.822 43.751 162.971C44.0917 163.116 44.4697 163.188 44.885 163.188C45.5197 163.188 46.0143 162.997 46.369 162.614C46.7237 162.227 46.901 161.66 46.901 160.913C46.901 160.395 46.824 159.987 46.67 159.688C46.516 159.389 46.306 159.177 46.04 159.051C45.7787 158.92 45.487 158.855 45.165 158.855C44.8803 158.855 44.6283 158.883 44.409 158.939C44.1897 158.99 43.94 159.07 43.66 159.177H42.715V154.361H47.818ZM45.697 176.207C46.0703 176.207 46.4133 176.256 46.726 176.354C47.0387 176.447 47.3303 176.585 47.601 176.767L47.139 177.565C46.9197 177.43 46.6863 177.329 46.439 177.264C46.1963 177.194 45.942 177.159 45.676 177.159C45.1627 177.159 44.7263 177.332 44.367 177.677C44.0077 178.018 43.737 178.501 43.555 179.126C43.373 179.747 43.2843 180.477 43.289 181.317L43.303 181.772C43.303 182.957 43.4593 183.828 43.772 184.383C44.0847 184.934 44.5957 185.209 45.305 185.209C45.9163 185.209 46.3737 184.992 46.677 184.558C46.985 184.124 47.139 183.534 47.139 182.787C47.139 182.26 47.0667 181.844 46.922 181.541C46.782 181.233 46.5837 181.014 46.327 180.883C46.0703 180.752 45.7717 180.687 45.431 180.687C44.9317 180.687 44.4907 180.836 44.108 181.135C43.7253 181.434 43.415 181.816 43.177 182.283L43.149 181.247C43.4663 180.706 43.828 180.316 44.234 180.078C44.64 179.84 45.0997 179.721 45.613 179.721C46.1123 179.721 46.5673 179.831 46.978 180.05C47.3887 180.269 47.7177 180.605 47.965 181.058C48.217 181.506 48.343 182.073 48.343 182.759C48.343 183.468 48.2077 184.077 47.937 184.586C47.6663 185.09 47.3 185.48 46.838 185.755C46.376 186.026 45.8673 186.161 45.312 186.161C44.724 186.161 44.227 186.051 43.821 185.832C43.415 185.608 43.086 185.291 42.834 184.88C42.582 184.465 42.3977 183.968 42.281 183.389C42.169 182.806 42.113 182.157 42.113 181.443C42.113 180.379 42.253 179.455 42.533 178.671C42.8177 177.887 43.226 177.28 43.758 176.851C44.2947 176.422 44.941 176.207 45.697 176.207ZM44.227 208.133L43.128 207.797L46.887 199.341H42.365V198.361H48.07V199.264L44.227 208.133Z"
            fill="#9CA3AF"
    />
    <path
            d="M67.393 114.129V113.107H73.007V114.129H67.393ZM70.732 132.363V135.156H73.483V136.143H70.732V138.915H69.633V136.143H66.917V135.156H69.633V132.363H70.732Z"
            fill="#1F2937"
    />
    <path
            d="M89.23 66.629V72.817C89.23 73.6383 89.0457 74.3243 88.677 74.875C88.3083 75.4303 87.774 75.876 87.074 76.212C86.374 76.548 85.527 76.8 84.533 76.968L84.337 76.058C85.065 75.9367 85.709 75.7547 86.269 75.512C86.829 75.2693 87.2653 74.9357 87.578 74.511C87.8953 74.091 88.054 73.552 88.054 72.894V67.56H84.988V66.629H89.23ZM88.131 63.178C88.3923 63.178 88.6023 63.2573 88.761 63.416C88.9197 63.5747 88.999 63.7683 88.999 63.997C88.999 64.235 88.9197 64.4357 88.761 64.599C88.6023 64.7577 88.3923 64.837 88.131 64.837C87.879 64.837 87.676 64.7577 87.522 64.599C87.368 64.4357 87.291 64.235 87.291 63.997C87.291 63.7683 87.368 63.5747 87.522 63.416C87.676 63.2573 87.879 63.178 88.131 63.178ZM95.7485 66.475C96.4439 66.475 97.0249 66.6337 97.4915 66.951C97.9629 67.2637 98.3152 67.707 98.5485 68.281C98.7865 68.855 98.9055 69.5317 98.9055 70.311C98.9055 71.0623 98.7842 71.7273 98.5415 72.306C98.2989 72.8847 97.9419 73.3397 97.4705 73.671C97.0039 73.9977 96.4252 74.161 95.7345 74.161C95.0439 74.161 94.4629 74.0023 93.9915 73.685C93.5202 73.3677 93.1632 72.922 92.9205 72.348C92.6825 71.7693 92.5635 71.095 92.5635 70.325C92.5635 69.5643 92.6849 68.8947 92.9275 68.316C93.1702 67.7373 93.5272 67.287 93.9985 66.965C94.4745 66.6383 95.0579 66.475 95.7485 66.475ZM95.7485 67.434C95.1139 67.434 94.6332 67.6697 94.3065 68.141C93.9845 68.6077 93.8235 69.3357 93.8235 70.325C93.8235 71.2957 93.9822 72.0167 94.2995 72.488C94.6215 72.9593 95.0999 73.195 95.7345 73.195C96.3692 73.195 96.8452 72.9593 97.1625 72.488C97.4845 72.0167 97.6455 71.291 97.6455 70.311C97.6455 69.331 97.4869 68.6077 97.1695 68.141C96.8522 67.6697 96.3785 67.434 95.7485 67.434ZM102.652 67.588C102.923 67.2333 103.233 66.9603 103.583 66.769C103.938 66.573 104.327 66.475 104.752 66.475C105.41 66.475 105.942 66.6337 106.348 66.951C106.754 67.2683 107.05 67.7163 107.237 68.295C107.424 68.869 107.517 69.541 107.517 70.311C107.517 71.053 107.405 71.7157 107.181 72.299C106.957 72.8777 106.628 73.3327 106.194 73.664C105.765 73.9953 105.233 74.161 104.598 74.161C103.744 74.161 103.074 73.853 102.589 73.237L102.505 74H101.476V63.661L102.652 63.514V67.588ZM104.318 73.209C104.934 73.209 105.408 72.971 105.739 72.495C106.07 72.019 106.236 71.2887 106.236 70.304C106.236 69.66 106.171 69.1257 106.04 68.701C105.909 68.2717 105.713 67.952 105.452 67.742C105.195 67.5273 104.878 67.42 104.5 67.42C104.089 67.42 103.728 67.5437 103.415 67.791C103.107 68.0337 102.853 68.3043 102.652 68.603V72.257C102.843 72.5463 103.084 72.7773 103.373 72.95C103.667 73.1227 103.982 73.209 104.318 73.209ZM112.517 73.188C113.081 73.188 113.527 73.083 113.854 72.873C114.185 72.6583 114.351 72.3737 114.351 72.019C114.351 71.795 114.309 71.6013 114.225 71.438C114.145 71.2747 113.98 71.1277 113.728 70.997C113.476 70.8663 113.088 70.7357 112.566 70.605C112.057 70.479 111.614 70.3343 111.236 70.171C110.862 70.003 110.571 69.786 110.361 69.52C110.155 69.254 110.053 68.9087 110.053 68.484C110.053 68.0687 110.169 67.7117 110.403 67.413C110.641 67.1097 110.97 66.8787 111.39 66.72C111.81 66.5567 112.297 66.475 112.853 66.475C113.445 66.475 113.961 66.5543 114.4 66.713C114.843 66.867 115.219 67.0583 115.527 67.287L115.009 68.085C114.729 67.8937 114.421 67.7373 114.085 67.616C113.749 67.49 113.343 67.427 112.867 67.427C112.288 67.427 111.877 67.518 111.635 67.7C111.392 67.8773 111.271 68.1083 111.271 68.393C111.271 68.6077 111.329 68.7873 111.446 68.932C111.567 69.072 111.77 69.2003 112.055 69.317C112.339 69.429 112.731 69.5527 113.231 69.688C113.711 69.814 114.129 69.9657 114.484 70.143C114.843 70.3203 115.123 70.5537 115.324 70.843C115.524 71.1323 115.625 71.5057 115.625 71.963C115.625 72.4857 115.475 72.9103 115.177 73.237C114.878 73.559 114.491 73.7947 114.015 73.944C113.543 74.0887 113.044 74.161 112.517 74.161C111.849 74.161 111.28 74.0653 110.809 73.874C110.342 73.678 109.95 73.4423 109.633 73.167L110.305 72.39C110.594 72.628 110.925 72.8217 111.299 72.971C111.677 73.1157 112.083 73.188 112.517 73.188ZM107.328 95.629C107.076 95.797 106.77 95.9277 106.411 96.021C106.052 96.1143 105.699 96.161 105.354 96.161C104.561 96.161 103.949 95.9533 103.52 95.538C103.091 95.1227 102.876 94.5883 102.876 93.935V89.539H101.182V88.629H102.876V86.956L104.052 86.816V88.629H106.6L106.46 89.539H104.052V93.921C104.052 94.3317 104.159 94.6443 104.374 94.859C104.593 95.0737 104.955 95.181 105.459 95.181C105.734 95.181 105.989 95.1483 106.222 95.083C106.455 95.0177 106.672 94.9337 106.873 94.831L107.328 95.629ZM110.935 92.731C110.958 93.3003 111.068 93.767 111.264 94.131C111.46 94.4903 111.719 94.7563 112.041 94.929C112.363 95.097 112.713 95.181 113.091 95.181C113.469 95.181 113.809 95.125 114.113 95.013C114.421 94.901 114.736 94.7353 115.058 94.516L115.611 95.293C115.265 95.5637 114.871 95.776 114.428 95.93C113.989 96.084 113.539 96.161 113.077 96.161C112.363 96.161 111.754 96 111.25 95.678C110.746 95.356 110.361 94.908 110.095 94.334C109.833 93.7553 109.703 93.0857 109.703 92.325C109.703 91.5783 109.836 90.9157 110.102 90.337C110.368 89.7583 110.741 89.3033 111.222 88.972C111.702 88.6407 112.269 88.475 112.923 88.475C113.543 88.475 114.078 88.622 114.526 88.916C114.974 89.2053 115.317 89.6207 115.555 90.162C115.797 90.6987 115.919 91.3403 115.919 92.087C115.919 92.213 115.916 92.332 115.912 92.444C115.907 92.5513 115.9 92.647 115.891 92.731H110.935ZM112.937 89.441C112.391 89.441 111.933 89.6347 111.565 90.022C111.201 90.4093 110.993 91.009 110.942 91.821H114.785C114.771 91.0323 114.598 90.4397 114.267 90.043C113.935 89.6417 113.492 89.441 112.937 89.441ZM121.051 95.188C121.616 95.188 122.061 95.083 122.388 94.873C122.719 94.6583 122.885 94.3737 122.885 94.019C122.885 93.795 122.843 93.6013 122.759 93.438C122.68 93.2747 122.514 93.1277 122.262 92.997C122.01 92.8663 121.623 92.7357 121.1 92.605C120.591 92.479 120.148 92.3343 119.77 92.171C119.397 92.003 119.105 91.786 118.895 91.52C118.69 91.254 118.587 90.9087 118.587 90.484C118.587 90.0687 118.704 89.7117 118.937 89.413C119.175 89.1097 119.504 88.8787 119.924 88.72C120.344 88.5567 120.832 88.475 121.387 88.475C121.98 88.475 122.495 88.5543 122.934 88.713C123.377 88.867 123.753 89.0583 124.061 89.287L123.543 90.085C123.263 89.8937 122.955 89.7373 122.619 89.616C122.283 89.49 121.877 89.427 121.401 89.427C120.822 89.427 120.412 89.518 120.169 89.7C119.926 89.8773 119.805 90.1083 119.805 90.393C119.805 90.6077 119.863 90.7873 119.98 90.932C120.101 91.072 120.304 91.2003 120.589 91.317C120.874 91.429 121.266 91.5527 121.765 91.688C122.246 91.814 122.663 91.9657 123.018 92.143C123.377 92.3203 123.657 92.5537 123.858 92.843C124.059 93.1323 124.159 93.5057 124.159 93.963C124.159 94.4857 124.01 94.9103 123.711 95.237C123.412 95.559 123.025 95.7947 122.549 95.944C122.078 96.0887 121.578 96.161 121.051 96.161C120.384 96.161 119.814 96.0653 119.343 95.874C118.876 95.678 118.484 95.4423 118.167 95.167L118.839 94.39C119.128 94.628 119.46 94.8217 119.833 94.971C120.211 95.1157 120.617 95.188 121.051 95.188ZM132.932 95.629C132.68 95.797 132.374 95.9277 132.015 96.021C131.655 96.1143 131.303 96.161 130.958 96.161C130.164 96.161 129.553 95.9533 129.124 95.538C128.694 95.1227 128.48 94.5883 128.48 93.935V89.539H126.786V88.629H128.48V86.956L129.656 86.816V88.629H132.204L132.064 89.539H129.656V93.921C129.656 94.3317 129.763 94.6443 129.978 94.859C130.197 95.0737 130.559 95.181 131.063 95.181C131.338 95.181 131.592 95.1483 131.826 95.083C132.059 95.0177 132.276 94.9337 132.477 94.831L132.932 95.629ZM118.545 118V117.006H119.665V111.616H118.545V110.622H120.694L120.939 112.351C121.219 111.74 121.562 111.271 121.968 110.944C122.379 110.613 122.911 110.447 123.564 110.447C123.779 110.447 123.968 110.463 124.131 110.496C124.299 110.529 124.469 110.571 124.642 110.622L124.243 111.798C124.089 111.751 123.949 111.719 123.823 111.7C123.697 111.681 123.552 111.672 123.389 111.672C122.834 111.672 122.358 111.873 121.961 112.274C121.564 112.675 121.247 113.266 121.009 114.045V117.006H122.507V118H118.545ZM123.396 113.212V111.518L123.55 110.622H124.642L124.432 113.212H123.396ZM128.354 110.622V115.816C128.354 116.283 128.449 116.619 128.641 116.824C128.832 117.025 129.124 117.125 129.516 117.125C129.894 117.125 130.253 117.015 130.594 116.796C130.934 116.577 131.2 116.315 131.392 116.012V110.622H132.736V118H131.581L131.483 117.027C131.203 117.396 130.85 117.68 130.426 117.881C130.001 118.077 129.572 118.175 129.138 118.175C128.424 118.175 127.889 117.981 127.535 117.594C127.185 117.207 127.01 116.67 127.01 115.984V110.622H128.354ZM135.544 118V110.622H136.699L136.797 111.616C137.101 111.238 137.469 110.949 137.903 110.748C138.342 110.547 138.778 110.447 139.212 110.447C139.922 110.447 140.444 110.641 140.78 111.028C141.116 111.411 141.284 111.945 141.284 112.631V118H139.94V113.457C139.94 112.99 139.912 112.612 139.856 112.323C139.805 112.029 139.695 111.817 139.527 111.686C139.359 111.555 139.105 111.49 138.764 111.49C138.498 111.49 138.246 111.548 138.008 111.665C137.77 111.782 137.556 111.929 137.364 112.106C137.178 112.283 137.019 112.468 136.888 112.659V118H135.544ZM146.662 117.104C147.198 117.104 147.621 117.006 147.929 116.81C148.241 116.614 148.398 116.348 148.398 116.012C148.398 115.797 148.356 115.613 148.272 115.459C148.192 115.305 148.024 115.165 147.768 115.039C147.516 114.913 147.133 114.785 146.62 114.654C146.12 114.528 145.684 114.381 145.311 114.213C144.937 114.045 144.648 113.826 144.443 113.555C144.242 113.284 144.142 112.934 144.142 112.505C144.142 112.085 144.258 111.721 144.492 111.413C144.73 111.105 145.063 110.867 145.493 110.699C145.927 110.531 146.431 110.447 147.005 110.447C147.611 110.447 148.139 110.529 148.587 110.692C149.039 110.851 149.422 111.047 149.735 111.28L149.161 112.155C148.876 111.964 148.563 111.807 148.223 111.686C147.887 111.565 147.49 111.504 147.033 111.504C146.487 111.504 146.097 111.588 145.864 111.756C145.635 111.919 145.521 112.136 145.521 112.407C145.521 112.608 145.577 112.776 145.689 112.911C145.805 113.042 146.004 113.163 146.284 113.275C146.564 113.387 146.951 113.511 147.446 113.646C147.926 113.777 148.346 113.931 148.706 114.108C149.065 114.285 149.343 114.519 149.539 114.808C149.739 115.093 149.84 115.468 149.84 115.935C149.84 116.462 149.688 116.892 149.385 117.223C149.081 117.55 148.687 117.79 148.202 117.944C147.721 118.098 147.208 118.175 146.662 118.175C145.99 118.175 145.411 118.077 144.926 117.881C144.445 117.685 144.041 117.445 143.715 117.16L144.457 116.306C144.746 116.544 145.077 116.738 145.451 116.887C145.824 117.032 146.228 117.104 146.662 117.104ZM152.634 114.745V113.611H158.318V114.745H152.634ZM164.025 110.447C164.729 110.447 165.32 110.606 165.796 110.923C166.276 111.24 166.638 111.688 166.881 112.267C167.128 112.841 167.252 113.52 167.252 114.304C167.252 115.065 167.126 115.737 166.874 116.32C166.626 116.899 166.262 117.354 165.782 117.685C165.301 118.012 164.711 118.175 164.011 118.175C163.311 118.175 162.718 118.016 162.233 117.699C161.752 117.382 161.388 116.934 161.141 116.355C160.893 115.776 160.77 115.097 160.77 114.318C160.77 113.553 160.893 112.881 161.141 112.302C161.393 111.719 161.761 111.264 162.247 110.937C162.732 110.61 163.325 110.447 164.025 110.447ZM164.025 111.518C163.418 111.518 162.961 111.747 162.653 112.204C162.345 112.657 162.191 113.361 162.191 114.318C162.191 115.265 162.342 115.968 162.646 116.425C162.949 116.878 163.404 117.104 164.011 117.104C164.617 117.104 165.072 116.878 165.376 116.425C165.679 115.968 165.831 115.261 165.831 114.304C165.831 113.352 165.679 112.65 165.376 112.197C165.077 111.744 164.627 111.518 164.025 111.518ZM169.682 118V110.622H170.837L170.935 111.616C171.239 111.238 171.607 110.949 172.041 110.748C172.48 110.547 172.916 110.447 173.35 110.447C174.06 110.447 174.582 110.641 174.918 111.028C175.254 111.411 175.422 111.945 175.422 112.631V118H174.078V113.457C174.078 112.99 174.05 112.612 173.994 112.323C173.943 112.029 173.833 111.817 173.665 111.686C173.497 111.555 173.243 111.49 172.902 111.49C172.636 111.49 172.384 111.548 172.146 111.665C171.908 111.782 171.694 111.929 171.502 112.106C171.316 112.283 171.157 112.468 171.026 112.659V118H169.682ZM118.545 140V139.006H119.665V133.616H118.545V132.622H120.694L120.939 134.351C121.219 133.74 121.562 133.271 121.968 132.944C122.379 132.613 122.911 132.447 123.564 132.447C123.779 132.447 123.968 132.463 124.131 132.496C124.299 132.529 124.469 132.571 124.642 132.622L124.243 133.798C124.089 133.751 123.949 133.719 123.823 133.7C123.697 133.681 123.552 133.672 123.389 133.672C122.834 133.672 122.358 133.873 121.961 134.274C121.564 134.675 121.247 135.266 121.009 136.045V139.006H122.507V140H118.545ZM123.396 135.212V133.518L123.55 132.622H124.642L124.432 135.212H123.396ZM128.354 132.622V137.816C128.354 138.283 128.449 138.619 128.641 138.824C128.832 139.025 129.124 139.125 129.516 139.125C129.894 139.125 130.253 139.015 130.594 138.796C130.934 138.577 131.2 138.315 131.392 138.012V132.622H132.736V140H131.581L131.483 139.027C131.203 139.396 130.85 139.68 130.426 139.881C130.001 140.077 129.572 140.175 129.138 140.175C128.424 140.175 127.889 139.981 127.535 139.594C127.185 139.207 127.01 138.67 127.01 137.984V132.622H128.354ZM135.544 140V132.622H136.699L136.797 133.616C137.101 133.238 137.469 132.949 137.903 132.748C138.342 132.547 138.778 132.447 139.212 132.447C139.922 132.447 140.444 132.641 140.78 133.028C141.116 133.411 141.284 133.945 141.284 134.631V140H139.94V135.457C139.94 134.99 139.912 134.612 139.856 134.323C139.805 134.029 139.695 133.817 139.527 133.686C139.359 133.555 139.105 133.49 138.764 133.49C138.498 133.49 138.246 133.548 138.008 133.665C137.77 133.782 137.556 133.929 137.364 134.106C137.178 134.283 137.019 134.468 136.888 134.659V140H135.544ZM146.662 139.104C147.198 139.104 147.621 139.006 147.929 138.81C148.241 138.614 148.398 138.348 148.398 138.012C148.398 137.797 148.356 137.613 148.272 137.459C148.192 137.305 148.024 137.165 147.768 137.039C147.516 136.913 147.133 136.785 146.62 136.654C146.12 136.528 145.684 136.381 145.311 136.213C144.937 136.045 144.648 135.826 144.443 135.555C144.242 135.284 144.142 134.934 144.142 134.505C144.142 134.085 144.258 133.721 144.492 133.413C144.73 133.105 145.063 132.867 145.493 132.699C145.927 132.531 146.431 132.447 147.005 132.447C147.611 132.447 148.139 132.529 148.587 132.692C149.039 132.851 149.422 133.047 149.735 133.28L149.161 134.155C148.876 133.964 148.563 133.807 148.223 133.686C147.887 133.565 147.49 133.504 147.033 133.504C146.487 133.504 146.097 133.588 145.864 133.756C145.635 133.919 145.521 134.136 145.521 134.407C145.521 134.608 145.577 134.776 145.689 134.911C145.805 135.042 146.004 135.163 146.284 135.275C146.564 135.387 146.951 135.511 147.446 135.646C147.926 135.777 148.346 135.931 148.706 136.108C149.065 136.285 149.343 136.519 149.539 136.808C149.739 137.093 149.84 137.468 149.84 137.935C149.84 138.462 149.688 138.892 149.385 139.223C149.081 139.55 148.687 139.79 148.202 139.944C147.721 140.098 147.208 140.175 146.662 140.175C145.99 140.175 145.411 140.077 144.926 139.881C144.445 139.685 144.041 139.445 143.715 139.16L144.457 138.306C144.746 138.544 145.077 138.738 145.451 138.887C145.824 139.032 146.228 139.104 146.662 139.104ZM152.634 136.745V135.611H158.318V136.745H152.634ZM164.025 132.447C164.729 132.447 165.32 132.606 165.796 132.923C166.276 133.24 166.638 133.688 166.881 134.267C167.128 134.841 167.252 135.52 167.252 136.304C167.252 137.065 167.126 137.737 166.874 138.32C166.626 138.899 166.262 139.354 165.782 139.685C165.301 140.012 164.711 140.175 164.011 140.175C163.311 140.175 162.718 140.016 162.233 139.699C161.752 139.382 161.388 138.934 161.141 138.355C160.893 137.776 160.77 137.097 160.77 136.318C160.77 135.553 160.893 134.881 161.141 134.302C161.393 133.719 161.761 133.264 162.247 132.937C162.732 132.61 163.325 132.447 164.025 132.447ZM164.025 133.518C163.418 133.518 162.961 133.747 162.653 134.204C162.345 134.657 162.191 135.361 162.191 136.318C162.191 137.265 162.342 137.968 162.646 138.425C162.949 138.878 163.404 139.104 164.011 139.104C164.617 139.104 165.072 138.878 165.376 138.425C165.679 137.968 165.831 137.261 165.831 136.304C165.831 135.352 165.679 134.65 165.376 134.197C165.077 133.744 164.627 133.518 164.025 133.518ZM169.682 140V132.622H170.837L170.935 133.616C171.239 133.238 171.607 132.949 172.041 132.748C172.48 132.547 172.916 132.447 173.35 132.447C174.06 132.447 174.582 132.641 174.918 133.028C175.254 133.411 175.422 133.945 175.422 134.631V140H174.078V135.457C174.078 134.99 174.05 134.612 173.994 134.323C173.943 134.029 173.833 133.817 173.665 133.686C173.497 133.555 173.243 133.49 172.902 133.49C172.636 133.49 172.384 133.548 172.146 133.665C171.908 133.782 171.694 133.929 171.502 134.106C171.316 134.283 171.157 134.468 171.026 134.659V140H169.682Z"
            fill="#047857"
    />
    <path
            d="M120.197 73.02C120.197 72.7167 120.304 72.453 120.519 72.229C120.738 72.005 121.007 71.893 121.324 71.893C121.651 71.893 121.921 72.005 122.136 72.229C122.355 72.453 122.465 72.7167 122.465 73.02C122.465 73.3373 122.355 73.608 122.136 73.832C121.921 74.0513 121.651 74.161 121.324 74.161C121.007 74.161 120.738 74.0513 120.519 73.832C120.304 73.608 120.197 73.3373 120.197 73.02ZM120.197 67.973C120.197 67.7583 120.246 67.567 120.344 67.399C120.442 67.231 120.577 67.098 120.75 67C120.923 66.8973 121.114 66.846 121.324 66.846C121.651 66.846 121.921 66.9557 122.136 67.175C122.355 67.3943 122.465 67.6603 122.465 67.973C122.465 68.281 122.355 68.5493 122.136 68.778C121.921 69.002 121.651 69.114 121.324 69.114C121.007 69.114 120.738 69.002 120.519 68.778C120.304 68.5493 120.197 68.281 120.197 67.973ZM137.266 95.02C137.266 94.7167 137.374 94.453 137.588 94.229C137.808 94.005 138.076 93.893 138.393 93.893C138.72 93.893 138.991 94.005 139.205 94.229C139.425 94.453 139.534 94.7167 139.534 95.02C139.534 95.3373 139.425 95.608 139.205 95.832C138.991 96.0513 138.72 96.161 138.393 96.161C138.076 96.161 137.808 96.0513 137.588 95.832C137.374 95.608 137.266 95.3373 137.266 95.02ZM137.266 89.973C137.266 89.7583 137.315 89.567 137.413 89.399C137.511 89.231 137.647 89.098 137.819 89C137.992 88.8973 138.183 88.846 138.393 88.846C138.72 88.846 138.991 88.9557 139.205 89.175C139.425 89.3943 139.534 89.6603 139.534 89.973C139.534 90.281 139.425 90.5493 139.205 90.778C138.991 91.002 138.72 91.114 138.393 91.114C138.076 91.114 137.808 91.002 137.588 90.778C137.374 90.5493 137.266 90.281 137.266 89.973ZM179.883 116.978C179.883 116.661 179.997 116.385 180.226 116.152C180.455 115.919 180.735 115.802 181.066 115.802C181.407 115.802 181.691 115.919 181.92 116.152C182.149 116.385 182.263 116.661 182.263 116.978C182.263 117.309 182.149 117.592 181.92 117.825C181.691 118.058 181.407 118.175 181.066 118.175C180.735 118.175 180.455 118.058 180.226 117.825C179.997 117.592 179.883 117.309 179.883 116.978ZM179.883 111.966C179.883 111.742 179.934 111.541 180.037 111.364C180.144 111.187 180.287 111.047 180.464 110.944C180.646 110.837 180.847 110.783 181.066 110.783C181.407 110.783 181.691 110.9 181.92 111.133C182.149 111.362 182.263 111.639 182.263 111.966C182.263 112.288 182.149 112.568 181.92 112.806C181.691 113.039 181.407 113.156 181.066 113.156C180.735 113.156 180.455 113.039 180.226 112.806C179.997 112.568 179.883 112.288 179.883 111.966ZM196.63 110.622V115.816C196.63 116.283 196.726 116.619 196.917 116.824C197.108 117.025 197.4 117.125 197.792 117.125C198.17 117.125 198.529 117.015 198.87 116.796C199.211 116.577 199.477 116.315 199.668 116.012V110.622H201.012V118H199.857L199.759 117.027C199.479 117.396 199.127 117.68 198.702 117.881C198.277 118.077 197.848 118.175 197.414 118.175C196.7 118.175 196.166 117.981 195.811 117.594C195.461 117.207 195.286 116.67 195.286 115.984V110.622H196.63ZM205.164 111.546C205.426 111.201 205.731 110.932 206.081 110.741C206.436 110.545 206.821 110.447 207.236 110.447C207.89 110.447 208.419 110.608 208.825 110.93C209.231 111.247 209.528 111.695 209.714 112.274C209.901 112.848 209.994 113.525 209.994 114.304C209.994 115.051 209.882 115.716 209.658 116.299C209.434 116.882 209.105 117.342 208.671 117.678C208.237 118.009 207.703 118.175 207.068 118.175C206.224 118.175 205.563 117.867 205.087 117.251L205.003 118H203.82V107.654L205.164 107.493V111.546ZM206.739 117.118C207.318 117.118 207.764 116.889 208.076 116.432C208.394 115.97 208.552 115.261 208.552 114.304C208.552 113.665 208.489 113.14 208.363 112.729C208.237 112.314 208.051 112.006 207.803 111.805C207.561 111.604 207.262 111.504 206.907 111.504C206.525 111.504 206.186 111.621 205.892 111.854C205.598 112.083 205.356 112.344 205.164 112.638V116.208C205.351 116.488 205.58 116.71 205.85 116.873C206.121 117.036 206.417 117.118 206.739 117.118ZM213.699 110.622V115.816C213.699 116.283 213.795 116.619 213.986 116.824C214.177 117.025 214.469 117.125 214.861 117.125C215.239 117.125 215.598 117.015 215.939 116.796C216.28 116.577 216.546 116.315 216.737 116.012V110.622H218.081V118H216.926L216.828 117.027C216.548 117.396 216.196 117.68 215.771 117.881C215.346 118.077 214.917 118.175 214.483 118.175C213.769 118.175 213.235 117.981 212.88 117.594C212.53 117.207 212.355 116.67 212.355 115.984V110.622H213.699ZM220.89 118V110.622H222.045L222.143 111.616C222.446 111.238 222.815 110.949 223.249 110.748C223.687 110.547 224.124 110.447 224.558 110.447C225.267 110.447 225.79 110.641 226.126 111.028C226.462 111.411 226.63 111.945 226.63 112.631V118H225.286V113.457C225.286 112.99 225.258 112.612 225.202 112.323C225.15 112.029 225.041 111.817 224.873 111.686C224.705 111.555 224.45 111.49 224.11 111.49C223.844 111.49 223.592 111.548 223.354 111.665C223.116 111.782 222.901 111.929 222.71 112.106C222.523 112.283 222.364 112.468 222.234 112.659V118H220.89ZM235.416 117.622C235.155 117.79 234.84 117.923 234.471 118.021C234.102 118.124 233.734 118.175 233.365 118.175C232.544 118.175 231.914 117.96 231.475 117.531C231.041 117.102 230.824 116.544 230.824 115.858V111.63H229.151V110.622H230.824V108.956L232.168 108.795V110.622H234.688L234.534 111.63H232.168V115.844C232.168 116.25 232.271 116.556 232.476 116.761C232.686 116.966 233.034 117.069 233.519 117.069C233.794 117.069 234.046 117.036 234.275 116.971C234.504 116.906 234.716 116.822 234.912 116.719L235.416 117.622ZM239.303 110.622V115.816C239.303 116.283 239.398 116.619 239.59 116.824C239.781 117.025 240.073 117.125 240.465 117.125C240.843 117.125 241.202 117.015 241.543 116.796C241.883 116.577 242.149 116.315 242.341 116.012V110.622H243.685V118H242.53L242.432 117.027C242.152 117.396 241.799 117.68 241.375 117.881C240.95 118.077 240.521 118.175 240.087 118.175C239.373 118.175 238.838 117.981 238.484 117.594C238.134 117.207 237.959 116.67 237.959 115.984V110.622H239.303ZM246.514 114.745V113.611H252.198V114.745H246.514ZM258.059 107.654V116.096C258.059 116.451 258.168 116.703 258.388 116.852C258.607 116.997 258.889 117.069 259.235 117.069C259.454 117.069 259.662 117.046 259.858 116.999C260.054 116.952 260.25 116.892 260.446 116.817L260.796 117.776C260.59 117.879 260.334 117.97 260.026 118.049C259.718 118.133 259.37 118.175 258.983 118.175C258.292 118.175 257.741 117.981 257.331 117.594C256.92 117.207 256.715 116.675 256.715 115.998V108.676H254.468V107.654H258.059ZM269.001 116.306C269.001 116.6 269.048 116.815 269.141 116.95C269.234 117.081 269.381 117.179 269.582 117.244L269.267 118.168C268.931 118.126 268.639 118.026 268.392 117.867C268.145 117.708 267.96 117.466 267.839 117.139C267.573 117.48 267.237 117.739 266.831 117.916C266.425 118.089 265.984 118.175 265.508 118.175C264.766 118.175 264.18 117.965 263.751 117.545C263.322 117.125 263.107 116.572 263.107 115.886C263.107 115.116 263.406 114.526 264.003 114.115C264.605 113.704 265.468 113.499 266.593 113.499H267.664V112.939C267.664 112.43 267.512 112.069 267.209 111.854C266.91 111.639 266.493 111.532 265.956 111.532C265.713 111.532 265.424 111.562 265.088 111.623C264.752 111.684 264.395 111.779 264.017 111.91L263.674 110.93C264.131 110.757 264.568 110.634 264.983 110.559C265.403 110.484 265.795 110.447 266.159 110.447C267.111 110.447 267.823 110.664 268.294 111.098C268.765 111.527 269.001 112.118 269.001 112.869V116.306ZM265.886 117.167C266.231 117.167 266.563 117.078 266.88 116.901C267.197 116.724 267.459 116.476 267.664 116.159V114.374H266.684C265.905 114.374 265.352 114.507 265.025 114.773C264.698 115.034 264.535 115.394 264.535 115.851C264.535 116.28 264.647 116.607 264.871 116.831C265.095 117.055 265.433 117.167 265.886 117.167ZM278.089 117.622C277.827 117.79 277.512 117.923 277.144 118.021C276.775 118.124 276.406 118.175 276.038 118.175C275.216 118.175 274.586 117.96 274.148 117.531C273.714 117.102 273.497 116.544 273.497 115.858V111.63H271.824V110.622H273.497V108.956L274.841 108.795V110.622H277.361L277.207 111.63H274.841V115.844C274.841 116.25 274.943 116.556 275.149 116.761C275.359 116.966 275.706 117.069 276.192 117.069C276.467 117.069 276.719 117.036 276.948 116.971C277.176 116.906 277.389 116.822 277.585 116.719L278.089 117.622ZM281.716 114.766C281.744 115.307 281.854 115.751 282.045 116.096C282.237 116.437 282.486 116.689 282.794 116.852C283.102 117.011 283.443 117.09 283.816 117.09C284.185 117.09 284.523 117.034 284.831 116.922C285.139 116.81 285.452 116.647 285.769 116.432L286.378 117.279C286.033 117.554 285.634 117.774 285.181 117.937C284.729 118.096 284.26 118.175 283.774 118.175C283.037 118.175 282.409 118.014 281.891 117.692C281.378 117.365 280.986 116.913 280.715 116.334C280.449 115.755 280.316 115.083 280.316 114.318C280.316 113.576 280.449 112.913 280.715 112.33C280.986 111.747 281.366 111.287 281.856 110.951C282.346 110.615 282.93 110.447 283.606 110.447C284.241 110.447 284.787 110.594 285.244 110.888C285.706 111.182 286.061 111.602 286.308 112.148C286.556 112.689 286.679 113.338 286.679 114.094C286.679 114.22 286.677 114.341 286.672 114.458C286.668 114.575 286.661 114.677 286.651 114.766H281.716ZM283.62 111.497C283.098 111.497 282.661 111.684 282.311 112.057C281.966 112.43 281.768 113.007 281.716 113.786H285.384C285.37 113.039 285.207 112.472 284.894 112.085C284.586 111.693 284.162 111.497 283.62 111.497ZM291.749 117.104C292.285 117.104 292.708 117.006 293.016 116.81C293.328 116.614 293.485 116.348 293.485 116.012C293.485 115.797 293.443 115.613 293.359 115.459C293.279 115.305 293.111 115.165 292.855 115.039C292.603 114.913 292.22 114.785 291.707 114.654C291.207 114.528 290.771 114.381 290.398 114.213C290.024 114.045 289.735 113.826 289.53 113.555C289.329 113.284 289.229 112.934 289.229 112.505C289.229 112.085 289.345 111.721 289.579 111.413C289.817 111.105 290.15 110.867 290.58 110.699C291.014 110.531 291.518 110.447 292.092 110.447C292.698 110.447 293.226 110.529 293.674 110.692C294.126 110.851 294.509 111.047 294.822 111.28L294.248 112.155C293.963 111.964 293.65 111.807 293.31 111.686C292.974 111.565 292.577 111.504 292.12 111.504C291.574 111.504 291.184 111.588 290.951 111.756C290.722 111.919 290.608 112.136 290.608 112.407C290.608 112.608 290.664 112.776 290.776 112.911C290.892 113.042 291.091 113.163 291.371 113.275C291.651 113.387 292.038 113.511 292.533 113.646C293.013 113.777 293.433 113.931 293.793 114.108C294.152 114.285 294.43 114.519 294.626 114.808C294.826 115.093 294.927 115.468 294.927 115.935C294.927 116.462 294.775 116.892 294.472 117.223C294.168 117.55 293.774 117.79 293.289 117.944C292.808 118.098 292.295 118.175 291.749 118.175C291.077 118.175 290.498 118.077 290.013 117.881C289.532 117.685 289.128 117.445 288.802 117.16L289.544 116.306C289.833 116.544 290.164 116.738 290.538 116.887C290.911 117.032 291.315 117.104 291.749 117.104ZM303.692 117.622C303.431 117.79 303.116 117.923 302.747 118.021C302.379 118.124 302.01 118.175 301.641 118.175C300.82 118.175 300.19 117.96 299.751 117.531C299.317 117.102 299.1 116.544 299.1 115.858V111.63H297.427V110.622H299.1V108.956L300.444 108.795V110.622H302.964L302.81 111.63H300.444V115.844C300.444 116.25 300.547 116.556 300.752 116.761C300.962 116.966 301.31 117.069 301.795 117.069C302.071 117.069 302.323 117.036 302.551 116.971C302.78 116.906 302.992 116.822 303.188 116.719L303.692 117.622ZM179.883 138.978C179.883 138.661 179.997 138.385 180.226 138.152C180.455 137.919 180.735 137.802 181.066 137.802C181.407 137.802 181.691 137.919 181.92 138.152C182.149 138.385 182.263 138.661 182.263 138.978C182.263 139.309 182.149 139.592 181.92 139.825C181.691 140.058 181.407 140.175 181.066 140.175C180.735 140.175 180.455 140.058 180.226 139.825C179.997 139.592 179.883 139.309 179.883 138.978ZM179.883 133.966C179.883 133.742 179.934 133.541 180.037 133.364C180.144 133.187 180.287 133.047 180.464 132.944C180.646 132.837 180.847 132.783 181.066 132.783C181.407 132.783 181.691 132.9 181.92 133.133C182.149 133.362 182.263 133.639 182.263 133.966C182.263 134.288 182.149 134.568 181.92 134.806C181.691 135.039 181.407 135.156 181.066 135.156C180.735 135.156 180.455 135.039 180.226 134.806C179.997 134.568 179.883 134.288 179.883 133.966ZM196.63 133.546C196.891 133.201 197.197 132.932 197.547 132.741C197.902 132.545 198.287 132.447 198.702 132.447C199.355 132.447 199.885 132.608 200.291 132.93C200.697 133.247 200.993 133.695 201.18 134.274C201.367 134.848 201.46 135.525 201.46 136.304C201.46 137.051 201.348 137.716 201.124 138.299C200.9 138.882 200.571 139.342 200.137 139.678C199.703 140.009 199.169 140.175 198.534 140.175C197.689 140.175 197.029 139.867 196.553 139.251L196.469 140H195.286V129.654L196.63 129.493V133.546ZM198.205 139.118C198.784 139.118 199.229 138.889 199.542 138.432C199.859 137.97 200.018 137.261 200.018 136.304C200.018 135.665 199.955 135.14 199.829 134.729C199.703 134.314 199.516 134.006 199.269 133.805C199.026 133.604 198.728 133.504 198.373 133.504C197.99 133.504 197.652 133.621 197.358 133.854C197.064 134.083 196.821 134.344 196.63 134.638V138.208C196.817 138.488 197.045 138.71 197.316 138.873C197.587 139.036 197.883 139.118 198.205 139.118ZM205.164 132.622V137.816C205.164 138.283 205.26 138.619 205.451 138.824C205.643 139.025 205.934 139.125 206.326 139.125C206.704 139.125 207.064 139.015 207.404 138.796C207.745 138.577 208.011 138.315 208.202 138.012V132.622H209.546V140H208.391L208.293 139.027C208.013 139.396 207.661 139.68 207.236 139.881C206.812 140.077 206.382 140.175 205.948 140.175C205.234 140.175 204.7 139.981 204.345 139.594C203.995 139.207 203.82 138.67 203.82 137.984V132.622H205.164ZM216.219 132.622V138.978H218.27V140H212.628V138.978H214.875V133.644H212.698V132.622H216.219ZM215.218 129.094C215.498 129.094 215.722 129.18 215.89 129.353C216.063 129.526 216.149 129.736 216.149 129.983C216.149 130.24 216.063 130.457 215.89 130.634C215.722 130.807 215.498 130.893 215.218 130.893C214.943 130.893 214.719 130.807 214.546 130.634C214.378 130.457 214.294 130.24 214.294 129.983C214.294 129.736 214.378 129.526 214.546 129.353C214.719 129.18 214.943 129.094 215.218 129.094ZM223.921 129.654V138.096C223.921 138.451 224.03 138.703 224.25 138.852C224.469 138.997 224.751 139.069 225.097 139.069C225.316 139.069 225.524 139.046 225.72 138.999C225.916 138.952 226.112 138.892 226.308 138.817L226.658 139.776C226.452 139.879 226.196 139.97 225.888 140.049C225.58 140.133 225.232 140.175 224.845 140.175C224.154 140.175 223.603 139.981 223.193 139.594C222.782 139.207 222.577 138.675 222.577 137.998V130.676H220.33V129.654H223.921ZM233.806 129.493L235.15 129.654V140H233.967L233.855 139.055C233.594 139.428 233.286 139.708 232.931 139.895C232.576 140.082 232.189 140.175 231.769 140.175C231.134 140.175 230.609 140.014 230.194 139.692C229.783 139.365 229.478 138.913 229.277 138.334C229.076 137.755 228.976 137.083 228.976 136.318C228.976 135.571 229.09 134.909 229.319 134.33C229.552 133.747 229.884 133.287 230.313 132.951C230.747 132.615 231.27 132.447 231.881 132.447C232.287 132.447 232.649 132.519 232.966 132.664C233.283 132.804 233.563 133.012 233.806 133.287V129.493ZM232.231 133.504C231.657 133.504 231.211 133.735 230.894 134.197C230.577 134.659 230.418 135.366 230.418 136.318C230.418 136.948 230.483 137.471 230.614 137.886C230.745 138.301 230.934 138.609 231.181 138.81C231.428 139.011 231.732 139.111 232.091 139.111C232.478 139.111 232.812 138.999 233.092 138.775C233.377 138.551 233.615 138.292 233.806 137.998V134.393C233.615 134.113 233.384 133.896 233.113 133.742C232.847 133.583 232.553 133.504 232.231 133.504ZM242.915 132.622V138.656C242.915 139.519 242.726 140.238 242.348 140.812C241.974 141.391 241.431 141.853 240.717 142.198C240.003 142.548 239.137 142.812 238.12 142.989L237.903 141.953C238.631 141.822 239.27 141.636 239.821 141.393C240.371 141.15 240.801 140.814 241.109 140.385C241.417 139.96 241.571 139.414 241.571 138.747V133.644H238.568V132.622H242.915ZM241.76 129.094C242.04 129.094 242.266 129.18 242.439 129.353C242.611 129.526 242.698 129.736 242.698 129.983C242.698 130.24 242.611 130.457 242.439 130.634C242.266 130.807 242.04 130.893 241.76 130.893C241.489 130.893 241.267 130.807 241.095 130.634C240.927 130.457 240.843 130.24 240.843 129.983C240.843 129.736 240.927 129.526 241.095 129.353C241.267 129.18 241.489 129.094 241.76 129.094ZM247.578 136.766C247.606 137.307 247.716 137.751 247.907 138.096C248.098 138.437 248.348 138.689 248.656 138.852C248.964 139.011 249.305 139.09 249.678 139.09C250.047 139.09 250.385 139.034 250.693 138.922C251.001 138.81 251.314 138.647 251.631 138.432L252.24 139.279C251.895 139.554 251.496 139.774 251.043 139.937C250.59 140.096 250.121 140.175 249.636 140.175C248.899 140.175 248.271 140.014 247.753 139.692C247.24 139.365 246.848 138.913 246.577 138.334C246.311 137.755 246.178 137.083 246.178 136.318C246.178 135.576 246.311 134.913 246.577 134.33C246.848 133.747 247.228 133.287 247.718 132.951C248.208 132.615 248.791 132.447 249.468 132.447C250.103 132.447 250.649 132.594 251.106 132.888C251.568 133.182 251.923 133.602 252.17 134.148C252.417 134.689 252.541 135.338 252.541 136.094C252.541 136.22 252.539 136.341 252.534 136.458C252.529 136.575 252.522 136.677 252.513 136.766H247.578ZM249.482 133.497C248.959 133.497 248.523 133.684 248.173 134.057C247.828 134.43 247.629 135.007 247.578 135.786H251.246C251.232 135.039 251.069 134.472 250.756 134.085C250.448 133.693 250.023 133.497 249.482 133.497ZM261.02 139.622C260.758 139.79 260.443 139.923 260.075 140.021C259.706 140.124 259.337 140.175 258.969 140.175C258.147 140.175 257.517 139.96 257.079 139.531C256.645 139.102 256.428 138.544 256.428 137.858V133.63H254.755V132.622H256.428V130.956L257.772 130.795V132.622H260.292L260.138 133.63H257.772V137.844C257.772 138.25 257.874 138.556 258.08 138.761C258.29 138.966 258.637 139.069 259.123 139.069C259.398 139.069 259.65 139.036 259.879 138.971C260.107 138.906 260.32 138.822 260.516 138.719L261.02 139.622ZM263.583 136.185V135.051H269.267V136.185H263.583ZM275.492 130.179C275.87 130.179 276.22 130.23 276.542 130.333C276.864 130.431 277.16 130.571 277.431 130.753L276.906 131.642C276.691 131.507 276.462 131.406 276.22 131.341C275.982 131.271 275.734 131.236 275.478 131.236C274.988 131.236 274.568 131.399 274.218 131.726C273.872 132.048 273.609 132.508 273.427 133.105C273.245 133.702 273.156 134.407 273.161 135.219L273.175 135.709C273.175 136.88 273.319 137.741 273.609 138.292C273.903 138.843 274.39 139.118 275.072 139.118C275.65 139.118 276.082 138.908 276.367 138.488C276.656 138.068 276.801 137.503 276.801 136.794C276.801 136.281 276.733 135.875 276.598 135.576C276.467 135.277 276.28 135.065 276.038 134.939C275.8 134.808 275.52 134.743 275.198 134.743C274.731 134.743 274.313 134.881 273.945 135.156C273.581 135.431 273.282 135.791 273.049 136.234L273.021 135.135C273.338 134.622 273.697 134.253 274.099 134.029C274.505 133.8 274.953 133.686 275.443 133.686C275.942 133.686 276.397 133.798 276.808 134.022C277.218 134.246 277.547 134.587 277.795 135.044C278.047 135.497 278.173 136.066 278.173 136.752C278.173 137.452 278.035 138.059 277.76 138.572C277.489 139.081 277.118 139.475 276.647 139.755C276.18 140.035 275.655 140.175 275.072 140.175C274.474 140.175 273.968 140.063 273.553 139.839C273.137 139.61 272.801 139.291 272.545 138.88C272.288 138.465 272.099 137.968 271.978 137.389C271.861 136.81 271.803 136.171 271.803 135.471C271.803 134.402 271.95 133.471 272.244 132.678C272.538 131.885 272.958 131.271 273.504 130.837C274.054 130.398 274.717 130.179 275.492 130.179ZM283.046 130.179L284.173 130.641L281.653 136.647H286.749V137.704H280.239V136.752L283.046 130.179ZM285.545 133.98V140H284.25L284.243 136.871L284.425 133.98H285.545ZM295.452 132.622L292.806 140H291.238L288.606 132.622H290.034L292.057 138.831L294.073 132.622H295.452ZM301.13 139.041C301.49 139.041 301.823 138.98 302.131 138.859C302.444 138.738 302.736 138.584 303.006 138.397L303.65 139.272C303.328 139.547 302.939 139.767 302.481 139.93C302.024 140.093 301.567 140.175 301.109 140.175C300.367 140.175 299.733 140.016 299.205 139.699C298.683 139.382 298.284 138.936 298.008 138.362C297.733 137.788 297.595 137.116 297.595 136.346C297.595 135.599 297.733 134.932 298.008 134.344C298.288 133.756 298.692 133.294 299.219 132.958C299.747 132.617 300.384 132.447 301.13 132.447C301.616 132.447 302.066 132.522 302.481 132.671C302.901 132.816 303.286 133.03 303.636 133.315L302.999 134.19C302.696 133.98 302.39 133.821 302.082 133.714C301.774 133.602 301.459 133.546 301.137 133.546C300.521 133.546 300.017 133.775 299.625 134.232C299.233 134.689 299.037 135.394 299.037 136.346C299.037 136.981 299.126 137.496 299.303 137.893C299.485 138.29 299.735 138.581 300.052 138.768C300.37 138.95 300.729 139.041 301.13 139.041ZM309.665 132.447C310.318 132.447 310.841 132.608 311.233 132.93C311.625 133.247 311.907 133.695 312.08 134.274C312.252 134.848 312.339 135.525 312.339 136.304C312.339 137.051 312.234 137.716 312.024 138.299C311.814 138.882 311.499 139.342 311.079 139.678C310.659 140.009 310.131 140.175 309.497 140.175C308.699 140.175 308.059 139.895 307.579 139.335V142.828L306.235 142.989V132.622H307.39L307.488 133.616C307.763 133.238 308.087 132.949 308.461 132.748C308.834 132.547 309.235 132.447 309.665 132.447ZM309.322 133.504C308.939 133.504 308.601 133.621 308.307 133.854C308.013 134.083 307.77 134.344 307.579 134.638V138.208C307.765 138.483 307.994 138.7 308.265 138.859C308.535 139.013 308.836 139.09 309.168 139.09C309.746 139.09 310.183 138.866 310.477 138.418C310.771 137.965 310.918 137.261 310.918 136.304C310.918 135.665 310.859 135.14 310.743 134.729C310.626 134.314 310.449 134.006 310.211 133.805C309.977 133.604 309.681 133.504 309.322 133.504ZM316.113 132.622V137.816C316.113 138.283 316.209 138.619 316.4 138.824C316.592 139.025 316.883 139.125 317.275 139.125C317.653 139.125 318.013 139.015 318.353 138.796C318.694 138.577 318.96 138.315 319.151 138.012V132.622H320.495V140H319.34L319.242 139.027C318.962 139.396 318.61 139.68 318.185 139.881C317.761 140.077 317.331 140.175 316.897 140.175C316.183 140.175 315.649 139.981 315.294 139.594C314.944 139.207 314.769 138.67 314.769 137.984V132.622H316.113ZM323.325 136.745V135.611H329.009V136.745H323.325ZM333.182 132.622V137.816C333.182 138.283 333.278 138.619 333.469 138.824C333.661 139.025 333.952 139.125 334.344 139.125C334.722 139.125 335.082 139.015 335.422 138.796C335.763 138.577 336.029 138.315 336.22 138.012V132.622H337.564V140H336.409L336.311 139.027C336.031 139.396 335.679 139.68 335.254 139.881C334.83 140.077 334.4 140.175 333.966 140.175C333.252 140.175 332.718 139.981 332.363 139.594C332.013 139.207 331.838 138.67 331.838 137.984V132.622H333.182ZM341.717 133.546C341.978 133.201 342.284 132.932 342.634 132.741C342.989 132.545 343.374 132.447 343.789 132.447C344.442 132.447 344.972 132.608 345.378 132.93C345.784 133.247 346.08 133.695 346.267 134.274C346.454 134.848 346.547 135.525 346.547 136.304C346.547 137.051 346.435 137.716 346.211 138.299C345.987 138.882 345.658 139.342 345.224 139.678C344.79 140.009 344.256 140.175 343.621 140.175C342.776 140.175 342.116 139.867 341.64 139.251L341.556 140H340.373V129.654L341.717 129.493V133.546ZM343.292 139.118C343.871 139.118 344.316 138.889 344.629 138.432C344.946 137.97 345.105 137.261 345.105 136.304C345.105 135.665 345.042 135.14 344.916 134.729C344.79 134.314 344.603 134.006 344.356 133.805C344.113 133.604 343.815 133.504 343.46 133.504C343.077 133.504 342.739 133.621 342.445 133.854C342.151 134.083 341.908 134.344 341.717 134.638V138.208C341.904 138.488 342.132 138.71 342.403 138.873C342.674 139.036 342.97 139.118 343.292 139.118ZM350.251 132.622V137.816C350.251 138.283 350.347 138.619 350.538 138.824C350.73 139.025 351.021 139.125 351.413 139.125C351.791 139.125 352.151 139.015 352.491 138.796C352.832 138.577 353.098 138.315 353.289 138.012V132.622H354.633V140H353.478L353.38 139.027C353.1 139.396 352.748 139.68 352.323 139.881C351.899 140.077 351.469 140.175 351.035 140.175C350.321 140.175 349.787 139.981 349.432 139.594C349.082 139.207 348.907 138.67 348.907 137.984V132.622H350.251ZM357.442 140V132.622H358.597L358.695 133.616C358.998 133.238 359.367 132.949 359.801 132.748C360.24 132.547 360.676 132.447 361.11 132.447C361.819 132.447 362.342 132.641 362.678 133.028C363.014 133.411 363.182 133.945 363.182 134.631V140H361.838V135.457C361.838 134.99 361.81 134.612 361.754 134.323C361.703 134.029 361.593 133.817 361.425 133.686C361.257 133.555 361.003 133.49 360.662 133.49C360.396 133.49 360.144 133.548 359.906 133.665C359.668 133.782 359.453 133.929 359.262 134.106C359.075 134.283 358.917 134.468 358.786 134.659V140H357.442ZM371.969 139.622C371.707 139.79 371.392 139.923 371.024 140.021C370.655 140.124 370.286 140.175 369.918 140.175C369.096 140.175 368.466 139.96 368.028 139.531C367.594 139.102 367.377 138.544 367.377 137.858V133.63H365.704V132.622H367.377V130.956L368.721 130.795V132.622H371.241L371.087 133.63H368.721V137.844C368.721 138.25 368.823 138.556 369.029 138.761C369.239 138.966 369.586 139.069 370.072 139.069C370.347 139.069 370.599 139.036 370.828 138.971C371.056 138.906 371.269 138.822 371.465 138.719L371.969 139.622ZM375.855 132.622V137.816C375.855 138.283 375.951 138.619 376.142 138.824C376.333 139.025 376.625 139.125 377.017 139.125C377.395 139.125 377.754 139.015 378.095 138.796C378.436 138.577 378.702 138.315 378.893 138.012V132.622H380.237V140H379.082L378.984 139.027C378.704 139.396 378.352 139.68 377.927 139.881C377.502 140.077 377.073 140.175 376.639 140.175C375.925 140.175 375.391 139.981 375.036 139.594C374.686 139.207 374.511 138.67 374.511 137.984V132.622H375.855ZM383.067 136.185V135.051H388.751V136.185H383.067ZM394.03 130.179C394.66 130.179 395.197 130.298 395.64 130.536C396.083 130.774 396.422 131.098 396.655 131.509C396.888 131.92 397.005 132.379 397.005 132.888C397.005 133.322 396.93 133.747 396.781 134.162C396.632 134.577 396.389 135.014 396.053 135.471C395.722 135.924 395.285 136.428 394.744 136.983C394.203 137.538 393.54 138.173 392.756 138.887H397.229L397.068 140H391.223V138.943C391.932 138.262 392.539 137.664 393.043 137.151C393.552 136.633 393.972 136.178 394.303 135.786C394.634 135.394 394.896 135.042 395.087 134.729C395.278 134.412 395.411 134.113 395.486 133.833C395.565 133.548 395.605 133.254 395.605 132.951C395.605 132.433 395.458 132.025 395.164 131.726C394.875 131.427 394.471 131.278 393.953 131.278C393.491 131.278 393.111 131.36 392.812 131.523C392.518 131.682 392.222 131.941 391.923 132.3L391.027 131.607C391.405 131.136 391.832 130.781 392.308 130.543C392.784 130.3 393.358 130.179 394.03 130.179ZM402.978 130.179C404.037 130.179 404.837 130.613 405.379 131.481C405.92 132.344 406.191 133.574 406.191 135.17C406.191 136.771 405.92 138.005 405.379 138.873C404.837 139.741 404.037 140.175 402.978 140.175C401.918 140.175 401.118 139.741 400.577 138.873C400.035 138.005 399.765 136.771 399.765 135.17C399.765 133.574 400.035 132.344 400.577 131.481C401.118 130.613 401.918 130.179 402.978 130.179ZM402.978 131.236C402.404 131.236 401.953 131.542 401.627 132.153C401.305 132.764 401.144 133.77 401.144 135.17C401.144 135.893 401.179 136.507 401.249 137.011C401.319 137.515 401.426 137.921 401.571 138.229C401.72 138.537 401.911 138.763 402.145 138.908C402.378 139.048 402.656 139.118 402.978 139.118C403.365 139.118 403.696 138.985 403.972 138.719C404.247 138.453 404.455 138.028 404.595 137.445C404.739 136.862 404.812 136.103 404.812 135.17C404.812 134.209 404.749 133.441 404.623 132.867C404.501 132.288 404.305 131.873 404.035 131.621C403.764 131.364 403.412 131.236 402.978 131.236ZM404.35 131.572L404.7 132.629L401.711 138.698L401.242 137.851L404.35 131.572ZM411.512 130.179C412.572 130.179 413.372 130.613 413.913 131.481C414.455 132.344 414.725 133.574 414.725 135.17C414.725 136.771 414.455 138.005 413.913 138.873C413.372 139.741 412.572 140.175 411.512 140.175C410.453 140.175 409.653 139.741 409.111 138.873C408.57 138.005 408.299 136.771 408.299 135.17C408.299 133.574 408.57 132.344 409.111 131.481C409.653 130.613 410.453 130.179 411.512 130.179ZM411.512 131.236C410.938 131.236 410.488 131.542 410.161 132.153C409.839 132.764 409.678 133.77 409.678 135.17C409.678 135.893 409.713 136.507 409.783 137.011C409.853 137.515 409.961 137.921 410.105 138.229C410.255 138.537 410.446 138.763 410.679 138.908C410.913 139.048 411.19 139.118 411.512 139.118C411.9 139.118 412.231 138.985 412.506 138.719C412.782 138.453 412.989 138.028 413.129 137.445C413.274 136.862 413.346 136.103 413.346 135.17C413.346 134.209 413.283 133.441 413.157 132.867C413.036 132.288 412.84 131.873 412.569 131.621C412.299 131.364 411.946 131.236 411.512 131.236ZM412.884 131.572L413.234 132.629L410.245 138.698L409.776 137.851L412.884 131.572ZM419.599 130.179L420.726 130.641L418.206 136.647H423.302V137.704H416.792V136.752L419.599 130.179ZM422.098 133.98V140H420.803L420.796 136.871L420.978 133.98H422.098ZM121.058 161.104C121.595 161.104 122.017 161.006 122.325 160.81C122.638 160.614 122.794 160.348 122.794 160.012C122.794 159.797 122.752 159.613 122.668 159.459C122.589 159.305 122.421 159.165 122.164 159.039C121.912 158.913 121.529 158.785 121.016 158.654C120.517 158.528 120.08 158.381 119.707 158.213C119.334 158.045 119.044 157.826 118.839 157.555C118.638 157.284 118.538 156.934 118.538 156.505C118.538 156.085 118.655 155.721 118.888 155.413C119.126 155.105 119.46 154.867 119.889 154.699C120.323 154.531 120.827 154.447 121.401 154.447C122.008 154.447 122.535 154.529 122.983 154.692C123.436 154.851 123.818 155.047 124.131 155.28L123.557 156.155C123.272 155.964 122.96 155.807 122.619 155.686C122.283 155.565 121.886 155.504 121.429 155.504C120.883 155.504 120.493 155.588 120.26 155.756C120.031 155.919 119.917 156.136 119.917 156.407C119.917 156.608 119.973 156.776 120.085 156.911C120.202 157.042 120.4 157.163 120.68 157.275C120.96 157.387 121.347 157.511 121.842 157.646C122.323 157.777 122.743 157.931 123.102 158.108C123.461 158.285 123.739 158.519 123.935 158.808C124.136 159.093 124.236 159.468 124.236 159.935C124.236 160.462 124.084 160.892 123.781 161.223C123.478 161.55 123.083 161.79 122.598 161.944C122.117 162.098 121.604 162.175 121.058 162.175C120.386 162.175 119.807 162.077 119.322 161.881C118.841 161.685 118.438 161.445 118.111 161.16L118.853 160.306C119.142 160.544 119.474 160.738 119.847 160.887C120.22 161.032 120.624 161.104 121.058 161.104ZM133.002 161.622C132.74 161.79 132.425 161.923 132.057 162.021C131.688 162.124 131.319 162.175 130.951 162.175C130.129 162.175 129.499 161.96 129.061 161.531C128.627 161.102 128.41 160.544 128.41 159.858V155.63H126.737V154.622H128.41V152.956L129.754 152.795V154.622H132.274L132.12 155.63H129.754V159.844C129.754 160.25 129.856 160.556 130.062 160.761C130.272 160.966 130.619 161.069 131.105 161.069C131.38 161.069 131.632 161.036 131.861 160.971C132.089 160.906 132.302 160.822 132.498 160.719L133.002 161.622ZM136.629 158.766C136.657 159.307 136.767 159.751 136.958 160.096C137.15 160.437 137.399 160.689 137.707 160.852C138.015 161.011 138.356 161.09 138.729 161.09C139.098 161.09 139.436 161.034 139.744 160.922C140.052 160.81 140.365 160.647 140.682 160.432L141.291 161.279C140.946 161.554 140.547 161.774 140.094 161.937C139.642 162.096 139.173 162.175 138.687 162.175C137.95 162.175 137.322 162.014 136.804 161.692C136.291 161.365 135.899 160.913 135.628 160.334C135.362 159.755 135.229 159.083 135.229 158.318C135.229 157.576 135.362 156.913 135.628 156.33C135.899 155.747 136.279 155.287 136.769 154.951C137.259 154.615 137.843 154.447 138.519 154.447C139.154 154.447 139.7 154.594 140.157 154.888C140.619 155.182 140.974 155.602 141.221 156.148C141.469 156.689 141.592 157.338 141.592 158.094C141.592 158.22 141.59 158.341 141.585 158.458C141.581 158.575 141.574 158.677 141.564 158.766H136.629ZM138.533 155.497C138.011 155.497 137.574 155.684 137.224 156.057C136.879 156.43 136.681 157.007 136.629 157.786H140.297C140.283 157.039 140.12 156.472 139.807 156.085C139.499 155.693 139.075 155.497 138.533 155.497ZM147.509 154.447C148.162 154.447 148.685 154.608 149.077 154.93C149.469 155.247 149.751 155.695 149.924 156.274C150.096 156.848 150.183 157.525 150.183 158.304C150.183 159.051 150.078 159.716 149.868 160.299C149.658 160.882 149.343 161.342 148.923 161.678C148.503 162.009 147.975 162.175 147.341 162.175C146.543 162.175 145.903 161.895 145.423 161.335V164.828L144.079 164.989V154.622H145.234L145.332 155.616C145.607 155.238 145.931 154.949 146.305 154.748C146.678 154.547 147.079 154.447 147.509 154.447ZM147.166 155.504C146.783 155.504 146.445 155.621 146.151 155.854C145.857 156.083 145.614 156.344 145.423 156.638V160.208C145.609 160.483 145.838 160.7 146.109 160.859C146.379 161.013 146.68 161.09 147.012 161.09C147.59 161.09 148.027 160.866 148.321 160.418C148.615 159.965 148.762 159.261 148.762 158.304C148.762 157.665 148.703 157.14 148.587 156.729C148.47 156.314 148.293 156.006 148.055 155.805C147.821 155.604 147.525 155.504 147.166 155.504ZM155.196 161.104C155.733 161.104 156.155 161.006 156.463 160.81C156.776 160.614 156.932 160.348 156.932 160.012C156.932 159.797 156.89 159.613 156.806 159.459C156.727 159.305 156.559 159.165 156.302 159.039C156.05 158.913 155.668 158.785 155.154 158.654C154.655 158.528 154.219 158.381 153.845 158.213C153.472 158.045 153.183 157.826 152.977 157.555C152.777 157.284 152.676 156.934 152.676 156.505C152.676 156.085 152.793 155.721 153.026 155.413C153.264 155.105 153.598 154.867 154.027 154.699C154.461 154.531 154.965 154.447 155.539 154.447C156.146 154.447 156.673 154.529 157.121 154.692C157.574 154.851 157.957 155.047 158.269 155.28L157.695 156.155C157.411 155.964 157.098 155.807 156.757 155.686C156.421 155.565 156.025 155.504 155.567 155.504C155.021 155.504 154.632 155.588 154.398 155.756C154.17 155.919 154.055 156.136 154.055 156.407C154.055 156.608 154.111 156.776 154.223 156.911C154.34 157.042 154.538 157.163 154.818 157.275C155.098 157.387 155.486 157.511 155.98 157.646C156.461 157.777 156.881 157.931 157.24 158.108C157.6 158.285 157.877 158.519 158.073 158.808C158.274 159.093 158.374 159.468 158.374 159.935C158.374 160.462 158.223 160.892 157.919 161.223C157.616 161.55 157.222 161.79 156.736 161.944C156.256 162.098 155.742 162.175 155.196 162.175C154.524 162.175 153.946 162.077 153.46 161.881C152.98 161.685 152.576 161.445 152.249 161.16L152.991 160.306C153.281 160.544 153.612 160.738 153.985 160.887C154.359 161.032 154.762 161.104 155.196 161.104ZM162.814 160.978C162.814 160.661 162.928 160.385 163.157 160.152C163.385 159.919 163.665 159.802 163.997 159.802C164.337 159.802 164.622 159.919 164.851 160.152C165.079 160.385 165.194 160.661 165.194 160.978C165.194 161.309 165.079 161.592 164.851 161.825C164.622 162.058 164.337 162.175 163.997 162.175C163.665 162.175 163.385 162.058 163.157 161.825C162.928 161.592 162.814 161.309 162.814 160.978ZM162.814 155.966C162.814 155.742 162.865 155.541 162.968 155.364C163.075 155.187 163.217 155.047 163.395 154.944C163.577 154.837 163.777 154.783 163.997 154.783C164.337 154.783 164.622 154.9 164.851 155.133C165.079 155.362 165.194 155.639 165.194 155.966C165.194 156.288 165.079 156.568 164.851 156.806C164.622 157.039 164.337 157.156 163.997 157.156C163.665 157.156 163.385 157.039 163.157 156.806C162.928 156.568 162.814 156.288 162.814 155.966ZM118.496 180.185V179.051H124.18V180.185H118.496ZM136.888 176.622V181.816C136.888 182.283 136.984 182.619 137.175 182.824C137.367 183.025 137.658 183.125 138.05 183.125C138.428 183.125 138.788 183.015 139.128 182.796C139.469 182.577 139.735 182.315 139.926 182.012V176.622H141.27V184H140.115L140.017 183.027C139.737 183.396 139.385 183.68 138.96 183.881C138.536 184.077 138.106 184.175 137.672 184.175C136.958 184.175 136.424 183.981 136.069 183.594C135.719 183.207 135.544 182.67 135.544 181.984V176.622H136.888ZM146.662 183.104C147.198 183.104 147.621 183.006 147.929 182.81C148.241 182.614 148.398 182.348 148.398 182.012C148.398 181.797 148.356 181.613 148.272 181.459C148.192 181.305 148.024 181.165 147.768 181.039C147.516 180.913 147.133 180.785 146.62 180.654C146.12 180.528 145.684 180.381 145.311 180.213C144.937 180.045 144.648 179.826 144.443 179.555C144.242 179.284 144.142 178.934 144.142 178.505C144.142 178.085 144.258 177.721 144.492 177.413C144.73 177.105 145.063 176.867 145.493 176.699C145.927 176.531 146.431 176.447 147.005 176.447C147.611 176.447 148.139 176.529 148.587 176.692C149.039 176.851 149.422 177.047 149.735 177.28L149.161 178.155C148.876 177.964 148.563 177.807 148.223 177.686C147.887 177.565 147.49 177.504 147.033 177.504C146.487 177.504 146.097 177.588 145.864 177.756C145.635 177.919 145.521 178.136 145.521 178.407C145.521 178.608 145.577 178.776 145.689 178.911C145.805 179.042 146.004 179.163 146.284 179.275C146.564 179.387 146.951 179.511 147.446 179.646C147.926 179.777 148.346 179.931 148.706 180.108C149.065 180.285 149.343 180.519 149.539 180.808C149.739 181.093 149.84 181.468 149.84 181.935C149.84 182.462 149.688 182.892 149.385 183.223C149.081 183.55 148.687 183.79 148.202 183.944C147.721 184.098 147.208 184.175 146.662 184.175C145.99 184.175 145.411 184.077 144.926 183.881C144.445 183.685 144.041 183.445 143.715 183.16L144.457 182.306C144.746 182.544 145.077 182.738 145.451 182.887C145.824 183.032 146.228 183.104 146.662 183.104ZM153.698 180.766C153.726 181.307 153.836 181.751 154.027 182.096C154.219 182.437 154.468 182.689 154.776 182.852C155.084 183.011 155.425 183.09 155.798 183.09C156.167 183.09 156.505 183.034 156.813 182.922C157.121 182.81 157.434 182.647 157.751 182.432L158.36 183.279C158.015 183.554 157.616 183.774 157.163 183.937C156.711 184.096 156.242 184.175 155.756 184.175C155.019 184.175 154.391 184.014 153.873 183.692C153.36 183.365 152.968 182.913 152.697 182.334C152.431 181.755 152.298 181.083 152.298 180.318C152.298 179.576 152.431 178.913 152.697 178.33C152.968 177.747 153.348 177.287 153.838 176.951C154.328 176.615 154.912 176.447 155.588 176.447C156.223 176.447 156.769 176.594 157.226 176.888C157.688 177.182 158.043 177.602 158.29 178.148C158.538 178.689 158.661 179.338 158.661 180.094C158.661 180.22 158.659 180.341 158.654 180.458C158.65 180.575 158.643 180.677 158.633 180.766H153.698ZM155.602 177.497C155.08 177.497 154.643 177.684 154.293 178.057C153.948 178.43 153.75 179.007 153.698 179.786H157.366C157.352 179.039 157.189 178.472 156.876 178.085C156.568 177.693 156.144 177.497 155.602 177.497ZM163.731 183.104C164.267 183.104 164.69 183.006 164.998 182.81C165.31 182.614 165.467 182.348 165.467 182.012C165.467 181.797 165.425 181.613 165.341 181.459C165.261 181.305 165.093 181.165 164.837 181.039C164.585 180.913 164.202 180.785 163.689 180.654C163.189 180.528 162.753 180.381 162.38 180.213C162.006 180.045 161.717 179.826 161.512 179.555C161.311 179.284 161.211 178.934 161.211 178.505C161.211 178.085 161.327 177.721 161.561 177.413C161.799 177.105 162.132 176.867 162.562 176.699C162.996 176.531 163.5 176.447 164.074 176.447C164.68 176.447 165.208 176.529 165.656 176.692C166.108 176.851 166.491 177.047 166.804 177.28L166.23 178.155C165.945 177.964 165.632 177.807 165.292 177.686C164.956 177.565 164.559 177.504 164.102 177.504C163.556 177.504 163.166 177.588 162.933 177.756C162.704 177.919 162.59 178.136 162.59 178.407C162.59 178.608 162.646 178.776 162.758 178.911C162.874 179.042 163.073 179.163 163.353 179.275C163.633 179.387 164.02 179.511 164.515 179.646C164.995 179.777 165.415 179.931 165.775 180.108C166.134 180.285 166.412 180.519 166.608 180.808C166.808 181.093 166.909 181.468 166.909 181.935C166.909 182.462 166.757 182.892 166.454 183.223C166.15 183.55 165.756 183.79 165.271 183.944C164.79 184.098 164.277 184.175 163.731 184.175C163.059 184.175 162.48 184.077 161.995 183.881C161.514 183.685 161.11 183.445 160.784 183.16L161.526 182.306C161.815 182.544 162.146 182.738 162.52 182.887C162.893 183.032 163.297 183.104 163.731 183.104ZM171.348 182.978C171.348 182.661 171.463 182.385 171.691 182.152C171.92 181.919 172.2 181.802 172.531 181.802C172.872 181.802 173.157 181.919 173.385 182.152C173.614 182.385 173.728 182.661 173.728 182.978C173.728 183.309 173.614 183.592 173.385 183.825C173.157 184.058 172.872 184.175 172.531 184.175C172.2 184.175 171.92 184.058 171.691 183.825C171.463 183.592 171.348 183.309 171.348 182.978ZM171.348 177.966C171.348 177.742 171.4 177.541 171.502 177.364C171.61 177.187 171.752 177.047 171.929 176.944C172.111 176.837 172.312 176.783 172.531 176.783C172.872 176.783 173.157 176.9 173.385 177.133C173.614 177.362 173.728 177.639 173.728 177.966C173.728 178.288 173.614 178.568 173.385 178.806C173.157 179.039 172.872 179.156 172.531 179.156C172.2 179.156 171.92 179.039 171.691 178.806C171.463 178.568 171.348 178.288 171.348 177.966ZM192.19 182.306C192.19 182.6 192.237 182.815 192.33 182.95C192.424 183.081 192.571 183.179 192.771 183.244L192.456 184.168C192.12 184.126 191.829 184.026 191.581 183.867C191.334 183.708 191.15 183.466 191.028 183.139C190.762 183.48 190.426 183.739 190.02 183.916C189.614 184.089 189.173 184.175 188.697 184.175C187.955 184.175 187.37 183.965 186.94 183.545C186.511 183.125 186.296 182.572 186.296 181.886C186.296 181.116 186.595 180.526 187.192 180.115C187.794 179.704 188.658 179.499 189.782 179.499H190.853V178.939C190.853 178.43 190.702 178.069 190.398 177.854C190.1 177.639 189.682 177.532 189.145 177.532C188.903 177.532 188.613 177.562 188.277 177.623C187.941 177.684 187.584 177.779 187.206 177.91L186.863 176.93C187.321 176.757 187.757 176.634 188.172 176.559C188.592 176.484 188.984 176.447 189.348 176.447C190.3 176.447 191.012 176.664 191.483 177.098C191.955 177.527 192.19 178.118 192.19 178.869V182.306ZM189.075 183.167C189.421 183.167 189.752 183.078 190.069 182.901C190.387 182.724 190.648 182.476 190.853 182.159V180.374H189.873C189.094 180.374 188.541 180.507 188.214 180.773C187.888 181.034 187.724 181.394 187.724 181.851C187.724 182.28 187.836 182.607 188.06 182.831C188.284 183.055 188.623 183.167 189.075 183.167ZM198.716 183.041C199.075 183.041 199.409 182.98 199.717 182.859C200.03 182.738 200.321 182.584 200.592 182.397L201.236 183.272C200.914 183.547 200.524 183.767 200.067 183.93C199.61 184.093 199.152 184.175 198.695 184.175C197.953 184.175 197.318 184.016 196.791 183.699C196.268 183.382 195.869 182.936 195.594 182.362C195.319 181.788 195.181 181.116 195.181 180.346C195.181 179.599 195.319 178.932 195.594 178.344C195.874 177.756 196.278 177.294 196.805 176.958C197.332 176.617 197.969 176.447 198.716 176.447C199.201 176.447 199.652 176.522 200.067 176.671C200.487 176.816 200.872 177.03 201.222 177.315L200.585 178.19C200.282 177.98 199.976 177.821 199.668 177.714C199.36 177.602 199.045 177.546 198.723 177.546C198.107 177.546 197.603 177.775 197.211 178.232C196.819 178.689 196.623 179.394 196.623 180.346C196.623 180.981 196.712 181.496 196.889 181.893C197.071 182.29 197.321 182.581 197.638 182.768C197.955 182.95 198.315 183.041 198.716 183.041ZM209.812 183.622C209.551 183.79 209.236 183.923 208.867 184.021C208.499 184.124 208.13 184.175 207.761 184.175C206.94 184.175 206.31 183.96 205.871 183.531C205.437 183.102 205.22 182.544 205.22 181.858V177.63H203.547V176.622H205.22V174.956L206.564 174.795V176.622H209.084L208.93 177.63H206.564V181.844C206.564 182.25 206.667 182.556 206.872 182.761C207.082 182.966 207.43 183.069 207.915 183.069C208.191 183.069 208.443 183.036 208.671 182.971C208.9 182.906 209.112 182.822 209.308 182.719L209.812 183.622ZM216.219 176.622V182.978H218.27V184H212.628V182.978H214.875V177.644H212.698V176.622H216.219ZM215.218 173.094C215.498 173.094 215.722 173.18 215.89 173.353C216.063 173.526 216.149 173.736 216.149 173.983C216.149 174.24 216.063 174.457 215.89 174.634C215.722 174.807 215.498 174.893 215.218 174.893C214.943 174.893 214.719 174.807 214.546 174.634C214.378 174.457 214.294 174.24 214.294 173.983C214.294 173.736 214.378 173.526 214.546 173.353C214.719 173.18 214.943 173.094 215.218 173.094ZM223.767 176.447C224.471 176.447 225.062 176.606 225.538 176.923C226.018 177.24 226.38 177.688 226.623 178.267C226.87 178.841 226.994 179.52 226.994 180.304C226.994 181.065 226.868 181.737 226.616 182.32C226.368 182.899 226.004 183.354 225.524 183.685C225.043 184.012 224.453 184.175 223.753 184.175C223.053 184.175 222.46 184.016 221.975 183.699C221.494 183.382 221.13 182.934 220.883 182.355C220.635 181.776 220.512 181.097 220.512 180.318C220.512 179.553 220.635 178.881 220.883 178.302C221.135 177.719 221.503 177.264 221.989 176.937C222.474 176.61 223.067 176.447 223.767 176.447ZM223.767 177.518C223.16 177.518 222.703 177.747 222.395 178.204C222.087 178.657 221.933 179.361 221.933 180.318C221.933 181.265 222.084 181.968 222.388 182.425C222.691 182.878 223.146 183.104 223.753 183.104C224.359 183.104 224.814 182.878 225.118 182.425C225.421 181.968 225.573 181.261 225.573 180.304C225.573 179.352 225.421 178.65 225.118 178.197C224.819 177.744 224.369 177.518 223.767 177.518ZM229.424 184V176.622H230.579L230.677 177.616C230.98 177.238 231.349 176.949 231.783 176.748C232.222 176.547 232.658 176.447 233.092 176.447C233.801 176.447 234.324 176.641 234.66 177.028C234.996 177.411 235.164 177.945 235.164 178.631V184H233.82V179.457C233.82 178.99 233.792 178.612 233.736 178.323C233.685 178.029 233.575 177.817 233.407 177.686C233.239 177.555 232.985 177.49 232.644 177.49C232.378 177.49 232.126 177.548 231.888 177.665C231.65 177.782 231.435 177.929 231.244 178.106C231.057 178.283 230.899 178.468 230.768 178.659V184H229.424ZM240.542 183.104C241.078 183.104 241.501 183.006 241.809 182.81C242.121 182.614 242.278 182.348 242.278 182.012C242.278 181.797 242.236 181.613 242.152 181.459C242.072 181.305 241.904 181.165 241.648 181.039C241.396 180.913 241.013 180.785 240.5 180.654C240 180.528 239.564 180.381 239.191 180.213C238.817 180.045 238.528 179.826 238.323 179.555C238.122 179.284 238.022 178.934 238.022 178.505C238.022 178.085 238.138 177.721 238.372 177.413C238.61 177.105 238.943 176.867 239.373 176.699C239.807 176.531 240.311 176.447 240.885 176.447C241.491 176.447 242.019 176.529 242.467 176.692C242.919 176.851 243.302 177.047 243.615 177.28L243.041 178.155C242.756 177.964 242.443 177.807 242.103 177.686C241.767 177.565 241.37 177.504 240.913 177.504C240.367 177.504 239.977 177.588 239.744 177.756C239.515 177.919 239.401 178.136 239.401 178.407C239.401 178.608 239.457 178.776 239.569 178.911C239.685 179.042 239.884 179.163 240.164 179.275C240.444 179.387 240.831 179.511 241.326 179.646C241.806 179.777 242.226 179.931 242.586 180.108C242.945 180.285 243.223 180.519 243.419 180.808C243.619 181.093 243.72 181.468 243.72 181.935C243.72 182.462 243.568 182.892 243.265 183.223C242.961 183.55 242.567 183.79 242.082 183.944C241.601 184.098 241.088 184.175 240.542 184.175C239.87 184.175 239.291 184.077 238.806 183.881C238.325 183.685 237.921 183.445 237.595 183.16L238.337 182.306C238.626 182.544 238.957 182.738 239.331 182.887C239.704 183.032 240.108 183.104 240.542 183.104ZM246.913 185.463L245.835 184.98L251.813 172.653L252.877 173.164L246.913 185.463ZM258.458 183.041C258.817 183.041 259.151 182.98 259.459 182.859C259.771 182.738 260.063 182.584 260.334 182.397L260.978 183.272C260.656 183.547 260.266 183.767 259.809 183.93C259.351 184.093 258.894 184.175 258.437 184.175C257.695 184.175 257.06 184.016 256.533 183.699C256.01 183.382 255.611 182.936 255.336 182.362C255.06 181.788 254.923 181.116 254.923 180.346C254.923 179.599 255.06 178.932 255.336 178.344C255.616 177.756 256.019 177.294 256.547 176.958C257.074 176.617 257.711 176.447 258.458 176.447C258.943 176.447 259.393 176.522 259.809 176.671C260.229 176.816 260.614 177.03 260.964 177.315L260.327 178.19C260.023 177.98 259.718 177.821 259.41 177.714C259.102 177.602 258.787 177.546 258.465 177.546C257.849 177.546 257.345 177.775 256.953 178.232C256.561 178.689 256.365 179.394 256.365 180.346C256.365 180.981 256.453 181.496 256.631 181.893C256.813 182.29 257.062 182.581 257.38 182.768C257.697 182.95 258.056 183.041 258.458 183.041ZM264.906 173.521V177.581C265.2 177.203 265.552 176.921 265.963 176.734C266.378 176.543 266.801 176.447 267.23 176.447C267.939 176.447 268.462 176.641 268.798 177.028C269.134 177.411 269.302 177.945 269.302 178.631V184H267.958V178.75C267.958 178.307 267.862 177.987 267.671 177.791C267.484 177.59 267.186 177.49 266.775 177.49C266.514 177.49 266.264 177.548 266.026 177.665C265.793 177.782 265.58 177.931 265.389 178.113C265.198 178.29 265.037 178.475 264.906 178.666V184H263.562V173.668L264.906 173.521ZM273.182 180.766C273.21 181.307 273.319 181.751 273.511 182.096C273.702 182.437 273.952 182.689 274.26 182.852C274.568 183.011 274.908 183.09 275.282 183.09C275.65 183.09 275.989 183.034 276.297 182.922C276.605 182.81 276.917 182.647 277.235 182.432L277.844 183.279C277.498 183.554 277.099 183.774 276.647 183.937C276.194 184.096 275.725 184.175 275.24 184.175C274.502 184.175 273.875 184.014 273.357 183.692C272.843 183.365 272.451 182.913 272.181 182.334C271.915 181.755 271.782 181.083 271.782 180.318C271.782 179.576 271.915 178.913 272.181 178.33C272.451 177.747 272.832 177.287 273.322 176.951C273.812 176.615 274.395 176.447 275.072 176.447C275.706 176.447 276.252 176.594 276.71 176.888C277.172 177.182 277.526 177.602 277.774 178.148C278.021 178.689 278.145 179.338 278.145 180.094C278.145 180.22 278.142 180.341 278.138 180.458C278.133 180.575 278.126 180.677 278.117 180.766H273.182ZM275.086 177.497C274.563 177.497 274.127 177.684 273.777 178.057C273.431 178.43 273.233 179.007 273.182 179.786H276.85C276.836 179.039 276.672 178.472 276.36 178.085C276.052 177.693 275.627 177.497 275.086 177.497ZM284.061 183.041C284.421 183.041 284.754 182.98 285.062 182.859C285.375 182.738 285.667 182.584 285.937 182.397L286.581 183.272C286.259 183.547 285.87 183.767 285.412 183.93C284.955 184.093 284.498 184.175 284.04 184.175C283.298 184.175 282.664 184.016 282.136 183.699C281.614 183.382 281.215 182.936 280.939 182.362C280.664 181.788 280.526 181.116 280.526 180.346C280.526 179.599 280.664 178.932 280.939 178.344C281.219 177.756 281.623 177.294 282.15 176.958C282.678 176.617 283.315 176.447 284.061 176.447C284.547 176.447 284.997 176.522 285.412 176.671C285.832 176.816 286.217 177.03 286.567 177.315L285.93 178.19C285.627 177.98 285.321 177.821 285.013 177.714C284.705 177.602 284.39 177.546 284.068 177.546C283.452 177.546 282.948 177.775 282.556 178.232C282.164 178.689 281.968 179.394 281.968 180.346C281.968 180.981 282.057 181.496 282.234 181.893C282.416 182.29 282.666 182.581 282.983 182.768C283.301 182.95 283.66 183.041 284.061 183.041ZM295.487 176.622L292.309 179.933L295.837 184H294.136L290.699 179.968L293.828 176.622H295.487ZM290.573 173.493V184H289.229V173.654L290.573 173.493ZM300.577 176.447C301.282 176.447 301.872 176.606 302.348 176.923C302.829 177.24 303.191 177.688 303.433 178.267C303.681 178.841 303.804 179.52 303.804 180.304C303.804 181.065 303.678 181.737 303.426 182.32C303.179 182.899 302.815 183.354 302.334 183.685C301.854 184.012 301.263 184.175 300.563 184.175C299.863 184.175 299.271 184.016 298.785 183.699C298.305 183.382 297.941 182.934 297.693 182.355C297.446 181.776 297.322 181.097 297.322 180.318C297.322 179.553 297.446 178.881 297.693 178.302C297.945 177.719 298.314 177.264 298.799 176.937C299.285 176.61 299.877 176.447 300.577 176.447ZM300.577 177.518C299.971 177.518 299.513 177.747 299.205 178.204C298.897 178.657 298.743 179.361 298.743 180.318C298.743 181.265 298.895 181.968 299.198 182.425C299.502 182.878 299.957 183.104 300.563 183.104C301.17 183.104 301.625 182.878 301.928 182.425C302.232 181.968 302.383 181.261 302.383 180.304C302.383 179.352 302.232 178.65 301.928 178.197C301.63 177.744 301.179 177.518 300.577 177.518ZM307.579 176.622V181.816C307.579 182.283 307.674 182.619 307.866 182.824C308.057 183.025 308.349 183.125 308.741 183.125C309.119 183.125 309.478 183.015 309.819 182.796C310.159 182.577 310.425 182.315 310.617 182.012V176.622H311.961V184H310.806L310.708 183.027C310.428 183.396 310.075 183.68 309.651 183.881C309.226 184.077 308.797 184.175 308.363 184.175C307.649 184.175 307.114 183.981 306.76 183.594C306.41 183.207 306.235 182.67 306.235 181.984V176.622H307.579ZM320.761 183.622C320.5 183.79 320.185 183.923 319.816 184.021C319.448 184.124 319.079 184.175 318.71 184.175C317.889 184.175 317.259 183.96 316.82 183.531C316.386 183.102 316.169 182.544 316.169 181.858V177.63H314.496V176.622H316.169V174.956L317.513 174.795V176.622H320.033L319.879 177.63H317.513V181.844C317.513 182.25 317.616 182.556 317.821 182.761C318.031 182.966 318.379 183.069 318.864 183.069C319.14 183.069 319.392 183.036 319.62 182.971C319.849 182.906 320.061 182.822 320.257 182.719L320.761 183.622ZM118.496 202.185V201.051H124.18V202.185H118.496ZM135.614 206V205.006H136.734V199.616H135.614V198.622H137.763L138.008 200.351C138.288 199.74 138.631 199.271 139.037 198.944C139.448 198.613 139.98 198.447 140.633 198.447C140.848 198.447 141.037 198.463 141.2 198.496C141.368 198.529 141.539 198.571 141.711 198.622L141.312 199.798C141.158 199.751 141.018 199.719 140.892 199.7C140.766 199.681 140.622 199.672 140.458 199.672C139.903 199.672 139.427 199.873 139.03 200.274C138.634 200.675 138.316 201.266 138.078 202.045V205.006H139.576V206H135.614ZM140.465 201.212V199.518L140.619 198.622H141.711L141.501 201.212H140.465ZM145.423 198.622V203.816C145.423 204.283 145.518 204.619 145.71 204.824C145.901 205.025 146.193 205.125 146.585 205.125C146.963 205.125 147.322 205.015 147.663 204.796C148.003 204.577 148.269 204.315 148.461 204.012V198.622H149.805V206H148.65L148.552 205.027C148.272 205.396 147.919 205.68 147.495 205.881C147.07 206.077 146.641 206.175 146.207 206.175C145.493 206.175 144.958 205.981 144.604 205.594C144.254 205.207 144.079 204.67 144.079 203.984V198.622H145.423ZM152.613 206V198.622H153.768L153.866 199.616C154.17 199.238 154.538 198.949 154.972 198.748C155.411 198.547 155.847 198.447 156.281 198.447C156.991 198.447 157.513 198.641 157.849 199.028C158.185 199.411 158.353 199.945 158.353 200.631V206H157.009V201.457C157.009 200.99 156.981 200.612 156.925 200.323C156.874 200.029 156.764 199.817 156.596 199.686C156.428 199.555 156.174 199.49 155.833 199.49C155.567 199.49 155.315 199.548 155.077 199.665C154.839 199.782 154.625 199.929 154.433 200.106C154.247 200.283 154.088 200.468 153.957 200.659V206H152.613ZM162.814 204.978C162.814 204.661 162.928 204.385 163.157 204.152C163.385 203.919 163.665 203.802 163.997 203.802C164.337 203.802 164.622 203.919 164.851 204.152C165.079 204.385 165.194 204.661 165.194 204.978C165.194 205.309 165.079 205.592 164.851 205.825C164.622 206.058 164.337 206.175 163.997 206.175C163.665 206.175 163.385 206.058 163.157 205.825C162.928 205.592 162.814 205.309 162.814 204.978ZM162.814 199.966C162.814 199.742 162.865 199.541 162.968 199.364C163.075 199.187 163.217 199.047 163.395 198.944C163.577 198.837 163.777 198.783 163.997 198.783C164.337 198.783 164.622 198.9 164.851 199.133C165.079 199.362 165.194 199.639 165.194 199.966C165.194 200.288 165.079 200.568 164.851 200.806C164.622 201.039 164.337 201.156 163.997 201.156C163.665 201.156 163.385 201.039 163.157 200.806C162.928 200.568 162.814 200.288 162.814 199.966ZM183.18 198.447C183.437 198.447 183.675 198.503 183.894 198.615C184.113 198.727 184.291 198.932 184.426 199.231C184.561 199.525 184.629 199.952 184.629 200.512V206H183.404V200.708C183.404 200.279 183.376 199.971 183.32 199.784C183.269 199.593 183.119 199.497 182.872 199.497C182.667 199.497 182.464 199.56 182.263 199.686C182.062 199.812 181.864 200.022 181.668 200.316V206H180.492V200.708C180.492 200.279 180.464 199.971 180.408 199.784C180.357 199.593 180.207 199.497 179.96 199.497C179.75 199.497 179.545 199.56 179.344 199.686C179.148 199.812 178.952 200.022 178.756 200.316V206H177.531V198.622H178.567L178.651 199.448C178.856 199.159 179.083 198.921 179.33 198.734C179.582 198.543 179.888 198.447 180.247 198.447C180.527 198.447 180.786 198.515 181.024 198.65C181.267 198.785 181.444 199.037 181.556 199.406C181.757 199.121 181.985 198.89 182.242 198.713C182.499 198.536 182.811 198.447 183.18 198.447ZM192.19 204.306C192.19 204.6 192.237 204.815 192.33 204.95C192.424 205.081 192.571 205.179 192.771 205.244L192.456 206.168C192.12 206.126 191.829 206.026 191.581 205.867C191.334 205.708 191.15 205.466 191.028 205.139C190.762 205.48 190.426 205.739 190.02 205.916C189.614 206.089 189.173 206.175 188.697 206.175C187.955 206.175 187.37 205.965 186.94 205.545C186.511 205.125 186.296 204.572 186.296 203.886C186.296 203.116 186.595 202.526 187.192 202.115C187.794 201.704 188.658 201.499 189.782 201.499H190.853V200.939C190.853 200.43 190.702 200.069 190.398 199.854C190.1 199.639 189.682 199.532 189.145 199.532C188.903 199.532 188.613 199.562 188.277 199.623C187.941 199.684 187.584 199.779 187.206 199.91L186.863 198.93C187.321 198.757 187.757 198.634 188.172 198.559C188.592 198.484 188.984 198.447 189.348 198.447C190.3 198.447 191.012 198.664 191.483 199.098C191.955 199.527 192.19 200.118 192.19 200.869V204.306ZM189.075 205.167C189.421 205.167 189.752 205.078 190.069 204.901C190.387 204.724 190.648 204.476 190.853 204.159V202.374H189.873C189.094 202.374 188.541 202.507 188.214 202.773C187.888 203.034 187.724 203.394 187.724 203.851C187.724 204.28 187.836 204.607 188.06 204.831C188.284 205.055 188.623 205.167 189.075 205.167ZM201.607 198.622L198.429 201.933L201.957 206H200.256L196.819 201.968L199.948 198.622H201.607ZM196.693 195.493V206H195.349V195.654L196.693 195.493ZM204.905 202.766C204.933 203.307 205.043 203.751 205.234 204.096C205.426 204.437 205.675 204.689 205.983 204.852C206.291 205.011 206.632 205.09 207.005 205.09C207.374 205.09 207.712 205.034 208.02 204.922C208.328 204.81 208.641 204.647 208.958 204.432L209.567 205.279C209.222 205.554 208.823 205.774 208.37 205.937C207.918 206.096 207.449 206.175 206.963 206.175C206.226 206.175 205.598 206.014 205.08 205.692C204.567 205.365 204.175 204.913 203.904 204.334C203.638 203.755 203.505 203.083 203.505 202.318C203.505 201.576 203.638 200.913 203.904 200.33C204.175 199.747 204.555 199.287 205.045 198.951C205.535 198.615 206.119 198.447 206.795 198.447C207.43 198.447 207.976 198.594 208.433 198.888C208.895 199.182 209.25 199.602 209.497 200.148C209.745 200.689 209.868 201.338 209.868 202.094C209.868 202.22 209.866 202.341 209.861 202.458C209.857 202.575 209.85 202.677 209.84 202.766H204.905ZM206.809 199.497C206.287 199.497 205.85 199.684 205.5 200.057C205.155 200.43 204.957 201.007 204.905 201.786H208.573C208.559 201.039 208.396 200.472 208.083 200.085C207.775 199.693 207.351 199.497 206.809 199.497ZM226.882 205.622C226.62 205.79 226.305 205.923 225.937 206.021C225.568 206.124 225.199 206.175 224.831 206.175C224.009 206.175 223.379 205.96 222.941 205.531C222.507 205.102 222.29 204.544 222.29 203.858V199.63H220.617V198.622H222.29V196.956L223.634 196.795V198.622H226.154L226 199.63H223.634V203.844C223.634 204.25 223.736 204.556 223.942 204.761C224.152 204.966 224.499 205.069 224.985 205.069C225.26 205.069 225.512 205.036 225.741 204.971C225.969 204.906 226.182 204.822 226.378 204.719L226.882 205.622ZM230.509 202.766C230.537 203.307 230.647 203.751 230.838 204.096C231.029 204.437 231.279 204.689 231.587 204.852C231.895 205.011 232.236 205.09 232.609 205.09C232.978 205.09 233.316 205.034 233.624 204.922C233.932 204.81 234.245 204.647 234.562 204.432L235.171 205.279C234.826 205.554 234.427 205.774 233.974 205.937C233.521 206.096 233.052 206.175 232.567 206.175C231.83 206.175 231.202 206.014 230.684 205.692C230.171 205.365 229.779 204.913 229.508 204.334C229.242 203.755 229.109 203.083 229.109 202.318C229.109 201.576 229.242 200.913 229.508 200.33C229.779 199.747 230.159 199.287 230.649 198.951C231.139 198.615 231.722 198.447 232.399 198.447C233.034 198.447 233.58 198.594 234.037 198.888C234.499 199.182 234.854 199.602 235.101 200.148C235.348 200.689 235.472 201.338 235.472 202.094C235.472 202.22 235.47 202.341 235.465 202.458C235.46 202.575 235.453 202.677 235.444 202.766H230.509ZM232.413 199.497C231.89 199.497 231.454 199.684 231.104 200.057C230.759 200.43 230.56 201.007 230.509 201.786H234.177C234.163 201.039 234 200.472 233.687 200.085C233.379 199.693 232.954 199.497 232.413 199.497ZM240.542 205.104C241.078 205.104 241.501 205.006 241.809 204.81C242.121 204.614 242.278 204.348 242.278 204.012C242.278 203.797 242.236 203.613 242.152 203.459C242.072 203.305 241.904 203.165 241.648 203.039C241.396 202.913 241.013 202.785 240.5 202.654C240 202.528 239.564 202.381 239.191 202.213C238.817 202.045 238.528 201.826 238.323 201.555C238.122 201.284 238.022 200.934 238.022 200.505C238.022 200.085 238.138 199.721 238.372 199.413C238.61 199.105 238.943 198.867 239.373 198.699C239.807 198.531 240.311 198.447 240.885 198.447C241.491 198.447 242.019 198.529 242.467 198.692C242.919 198.851 243.302 199.047 243.615 199.28L243.041 200.155C242.756 199.964 242.443 199.807 242.103 199.686C241.767 199.565 241.37 199.504 240.913 199.504C240.367 199.504 239.977 199.588 239.744 199.756C239.515 199.919 239.401 200.136 239.401 200.407C239.401 200.608 239.457 200.776 239.569 200.911C239.685 201.042 239.884 201.163 240.164 201.275C240.444 201.387 240.831 201.511 241.326 201.646C241.806 201.777 242.226 201.931 242.586 202.108C242.945 202.285 243.223 202.519 243.419 202.808C243.619 203.093 243.72 203.468 243.72 203.935C243.72 204.462 243.568 204.892 243.265 205.223C242.961 205.55 242.567 205.79 242.082 205.944C241.601 206.098 241.088 206.175 240.542 206.175C239.87 206.175 239.291 206.077 238.806 205.881C238.325 205.685 237.921 205.445 237.595 205.16L238.337 204.306C238.626 204.544 238.957 204.738 239.331 204.887C239.704 205.032 240.108 205.104 240.542 205.104ZM252.485 205.622C252.224 205.79 251.909 205.923 251.54 206.021C251.171 206.124 250.803 206.175 250.434 206.175C249.613 206.175 248.983 205.96 248.544 205.531C248.11 205.102 247.893 204.544 247.893 203.858V199.63H246.22V198.622H247.893V196.956L249.237 196.795V198.622H251.757L251.603 199.63H249.237V203.844C249.237 204.25 249.34 204.556 249.545 204.761C249.755 204.966 250.103 205.069 250.588 205.069C250.863 205.069 251.115 205.036 251.344 204.971C251.573 204.906 251.785 204.822 251.981 204.719L252.485 205.622Z"
            fill="#0C4A6E"
    />
    <path
            d="M28.5 36.2821C28.5 39.7368 25.7977 42.508 22.5 42.508C19.2023 42.508 16.5 39.7368 16.5 36.2821C16.5 32.8274 19.2023 30.0562 22.5 30.0562C25.7977 30.0562 28.5 32.8274 28.5 36.2821Z"
            fill="#F87171"
            stroke="#EF4444"
    />
    <path
            d="M70.5 35.7259C70.5 39.1807 67.7977 41.9519 64.5 41.9519C61.2023 41.9519 58.5 39.1807 58.5 35.7259C58.5 32.2712 61.2023 29.5 64.5 29.5C67.7977 29.5 70.5 32.2712 70.5 35.7259Z"
            fill="#34D399"
            stroke="#10B981"
    />
    <path
            d="M49.5 36.2821C49.5 39.7368 46.7977 42.508 43.5 42.508C40.2023 42.508 37.5 39.7368 37.5 36.2821C37.5 32.8274 40.2023 30.0562 43.5 30.0562C46.7977 30.0562 49.5 32.8274 49.5 36.2821Z"
            fill="#FBBF24"
            stroke="#F59E0B"
    />
    <path
            d="M219.955 39H218.675L218.03 35.185L217.335 39H216.085L215.15 33.73H216.105L216.725 38.405L217.52 34.4H218.57L219.315 38.405L219.935 33.73H220.85L219.955 39ZM224.106 33.605C224.609 33.605 225.031 33.7183 225.371 33.945C225.714 34.1717 225.973 34.4917 226.146 34.905C226.323 35.315 226.411 35.8 226.411 36.36C226.411 36.9033 226.321 37.3833 226.141 37.8C225.964 38.2133 225.704 38.5383 225.361 38.775C225.018 39.0083 224.596 39.125 224.096 39.125C223.596 39.125 223.173 39.0117 222.826 38.785C222.483 38.5583 222.223 38.2383 222.046 37.825C221.869 37.4117 221.781 36.9267 221.781 36.37C221.781 35.8233 221.869 35.3433 222.046 34.93C222.226 34.5133 222.489 34.1883 222.836 33.955C223.183 33.7217 223.606 33.605 224.106 33.605ZM224.106 34.37C223.673 34.37 223.346 34.5333 223.126 34.86C222.906 35.1833 222.796 35.6867 222.796 36.37C222.796 37.0467 222.904 37.5483 223.121 37.875C223.338 38.1983 223.663 38.36 224.096 38.36C224.529 38.36 224.854 38.1983 225.071 37.875C225.288 37.5483 225.396 37.0433 225.396 36.36C225.396 35.68 225.288 35.1783 225.071 34.855C224.858 34.5317 224.536 34.37 224.106 34.37ZM228.197 39V38.29H228.997V34.44H228.197V33.73H229.732L229.907 34.965C230.107 34.5283 230.352 34.1933 230.642 33.96C230.936 33.7233 231.316 33.605 231.782 33.605C231.936 33.605 232.071 33.6167 232.187 33.64C232.307 33.6633 232.429 33.6933 232.552 33.73L232.267 34.57C232.157 34.5367 232.057 34.5133 231.967 34.5C231.877 34.4867 231.774 34.48 231.657 34.48C231.261 34.48 230.921 34.6233 230.637 34.91C230.354 35.1967 230.127 35.6183 229.957 36.175V38.29H231.027V39H228.197ZM231.662 35.58V34.37L231.772 33.73H232.552L232.402 35.58H231.662ZM238.758 33.73L236.488 36.095L239.008 39H237.793L235.338 36.12L237.573 33.73H238.758ZM235.248 31.495V39H234.288V31.61L235.248 31.495ZM243.494 31.495C243.794 31.495 244.064 31.5217 244.304 31.575C244.544 31.625 244.771 31.6967 244.984 31.79L244.684 32.48C244.514 32.4067 244.333 32.3517 244.139 32.315C243.949 32.2783 243.754 32.26 243.554 32.26C243.194 32.26 242.926 32.33 242.749 32.47C242.573 32.61 242.484 32.825 242.484 33.115V34.125H244.264L244.159 34.855H242.484V39H241.529V34.855H240.294V34.125H241.529V33.12C241.529 32.79 241.613 32.5033 241.779 32.26C241.949 32.0167 242.181 31.8283 242.474 31.695C242.771 31.5617 243.111 31.495 243.494 31.495ZM248.6 31.61V37.64C248.6 37.8933 248.679 38.0733 248.835 38.18C248.992 38.2833 249.194 38.335 249.44 38.335C249.597 38.335 249.745 38.3183 249.885 38.285C250.025 38.2517 250.165 38.2083 250.305 38.155L250.555 38.84C250.409 38.9133 250.225 38.9783 250.005 39.035C249.785 39.095 249.537 39.125 249.26 39.125C248.767 39.125 248.374 38.9867 248.08 38.71C247.787 38.4333 247.64 38.0533 247.64 37.57V32.34H246.035V31.61H248.6ZM254.587 33.605C255.09 33.605 255.512 33.7183 255.852 33.945C256.195 34.1717 256.453 34.4917 256.627 34.905C256.803 35.315 256.892 35.8 256.892 36.36C256.892 36.9033 256.802 37.3833 256.622 37.8C256.445 38.2133 256.185 38.5383 255.842 38.775C255.498 39.0083 255.077 39.125 254.577 39.125C254.077 39.125 253.653 39.0117 253.307 38.785C252.963 38.5583 252.703 38.2383 252.527 37.825C252.35 37.4117 252.262 36.9267 252.262 36.37C252.262 35.8233 252.35 35.3433 252.527 34.93C252.707 34.5133 252.97 34.1883 253.317 33.955C253.663 33.7217 254.087 33.605 254.587 33.605ZM254.587 34.37C254.153 34.37 253.827 34.5333 253.607 34.86C253.387 35.1833 253.277 35.6867 253.277 36.37C253.277 37.0467 253.385 37.5483 253.602 37.875C253.818 38.1983 254.143 38.36 254.577 38.36C255.01 38.36 255.335 38.1983 255.552 37.875C255.768 37.5483 255.877 37.0433 255.877 36.36C255.877 35.68 255.768 35.1783 255.552 34.855C255.338 34.5317 255.017 34.37 254.587 34.37ZM262.628 39H261.348L260.703 35.185L260.008 39H258.758L257.823 33.73H258.778L259.398 38.405L260.193 34.4H261.243L261.988 38.405L262.608 33.73H263.523L262.628 39ZM265.849 38.2C265.849 38.03 265.889 37.8767 265.969 37.74C266.049 37.6 266.157 37.49 266.294 37.41C266.434 37.33 266.589 37.29 266.759 37.29C266.935 37.29 267.094 37.33 267.234 37.41C267.374 37.49 267.484 37.6 267.564 37.74C267.644 37.8767 267.684 38.03 267.684 38.2C267.684 38.37 267.644 38.5267 267.564 38.67C267.484 38.81 267.374 38.92 267.234 39C267.094 39.0833 266.935 39.125 266.759 39.125C266.589 39.125 266.434 39.0833 266.294 39C266.157 38.92 266.049 38.81 265.969 38.67C265.889 38.5267 265.849 38.37 265.849 38.2ZM275.305 33.73L273.465 39.03C273.338 39.4033 273.175 39.74 272.975 40.04C272.775 40.34 272.517 40.585 272.2 40.775C271.887 40.9683 271.492 41.0883 271.015 41.135L270.88 40.39C271.24 40.3333 271.525 40.2467 271.735 40.13C271.948 40.0133 272.115 39.8617 272.235 39.675C272.358 39.4883 272.468 39.2633 272.565 39H272.24L270.425 33.73H271.45L272.885 38.3L274.315 33.73H275.305ZM280.461 33.605C280.644 33.605 280.814 33.645 280.971 33.725C281.128 33.805 281.254 33.9517 281.351 34.165C281.448 34.375 281.496 34.68 281.496 35.08V39H280.621V35.22C280.621 34.9133 280.601 34.6933 280.561 34.56C280.524 34.4233 280.418 34.355 280.241 34.355C280.094 34.355 279.949 34.4 279.806 34.49C279.663 34.58 279.521 34.73 279.381 34.94V39H278.541V35.22C278.541 34.9133 278.521 34.6933 278.481 34.56C278.444 34.4233 278.338 34.355 278.161 34.355C278.011 34.355 277.864 34.4 277.721 34.49C277.581 34.58 277.441 34.73 277.301 34.94V39H276.426V33.73H277.166L277.226 34.32C277.373 34.1133 277.534 33.9433 277.711 33.81C277.891 33.6733 278.109 33.605 278.366 33.605C278.566 33.605 278.751 33.6533 278.921 33.75C279.094 33.8467 279.221 34.0267 279.301 34.29C279.444 34.0867 279.608 33.9217 279.791 33.795C279.974 33.6683 280.198 33.605 280.461 33.605ZM285.177 31.61V37.64C285.177 37.8933 285.255 38.0733 285.412 38.18C285.569 38.2833 285.77 38.335 286.017 38.335C286.174 38.335 286.322 38.3183 286.462 38.285C286.602 38.2517 286.742 38.2083 286.882 38.155L287.132 38.84C286.985 38.9133 286.802 38.9783 286.582 39.035C286.362 39.095 286.114 39.125 285.837 39.125C285.344 39.125 284.95 38.9867 284.657 38.71C284.364 38.4333 284.217 38.0533 284.217 37.57V32.34H282.612V31.61H285.177Z"
            fill="#9CA3AF"
    />
    <defs>
        <filter
                id="filter0_dd_1001_188"
                x="0.859863"
                y="0.794434"
                width="490.873"
                height="241.594"
                filterUnits="userSpaceOnUse"
                color-interpolation-filters="sRGB"
        >
            <feFlood flood-opacity="0" result="BackgroundImageFix"/>
            <feColorMatrix
                    in="SourceAlpha"
                    type="matrix"
                    values="0 0 0 0 0 0 0 0 0 0 0 0 0 0 0 0 0 0 127 0"
                    result="hardAlpha"
            />
            <feMorphology
                    radius="1"
                    operator="erode"
                    in="SourceAlpha"
                    result="effect1_dropShadow_1001_188"
            />
            <feOffset dy="2"/>
            <feGaussianBlur stdDeviation="2"/>
            <feColorMatrix
                    type="matrix"
                    values="0 0 0 0 0 0 0 0 0 0 0 0 0 0 0 0 0 0 0.06 0"
            />
            <feBlend
                    mode="normal"
                    in2="BackgroundImageFix"
                    result="effect1_dropShadow_1001_188"
            />
            <feColorMatrix
                    in="SourceAlpha"
                    type="matrix"
                    values="0 0 0 0 0 0 0 0 0 0 0 0 0 0 0 0 0 0 127 0"
                    result="hardAlpha"
            />
            <feMorphology
                    radius="1"
                    operator="erode"
                    in="SourceAlpha"
                    result="effect2_dropShadow_1001_188"
            />
            <feOffset dy="4"/>
            <feGaussianBlur stdDeviation="3"/>
            <feColorMatrix
                    type="matrix"
                    values="0 0 0 0 0 0 0 0 0 0 0 0 0 0 0 0 0 0 0.1 0"
            />
            <feBlend
                    mode="normal"
                    in2="effect1_dropShadow_1001_188"
                    result="effect2_dropShadow_1001_188"
            />
            <feBlend
                    mode="normal"
                    in="SourceGraphic"
                    in2="effect2_dropShadow_1001_188"
                    result="shape"
            />
        </filter>
    </defs>
</svg>