<svg width="37" height="40" viewBox="0 0 37 40" fill="none" xmlns="http://www.w3.org/2000/svg">
<path d="M16.5832 16.644L14.279 15.2832L12.1914 16.4739V28.3966L14.5265 29.7574V17.8347L16.5832 16.644Z" fill="#0068FF"/>
<path d="M20.4954 18.9796L18.4078 17.7734L16.3047 18.9796V21.4075L18.4078 22.6136L20.4954 21.4075V18.9796Z" fill="#0068FF"/>
<path d="M22.2732 17.7889V22.2734L18.4072 24.5157L16.3041 23.294V25.9847L18.4072 27.2064L24.6082 23.6188V16.459L14.4175 10.3662L8 14.0621V25.9693L10.3505 27.3301V15.4229L14.4021 13.0724L22.2732 17.7889Z" fill="#0068FF"/>
<path d="M18.5312 8L16.1807 9.34539L26.4332 15.4072V24.8556L26.3868 24.8402L18.4075 29.4485L16.3044 28.2423V30.7938L16.691 31.0103L18.4075 32L28.7373 26.0309V14.1082V14.0928L18.5312 8Z" fill="#0068FF"/>
</svg>
