<svg width="17" height="17" viewBox="0 0 17 17" fill="none" xmlns="http://www.w3.org/2000/svg">
    <path d="M8.5 3.58333V5.66667M8.5 3.58333C8.5 2.43274 9.43274 1.5 10.5833 1.5C11.7339 1.5 12.6667 2.43274 12.6667 3.58333C12.6667 4.73393 11.7339 5.66667 10.5833 5.66667M8.5 3.58333C8.5 2.43274 7.56726 1.5 6.41667 1.5C5.26607 1.5 4.33333 2.43274 4.33333 3.58333C4.33333 4.73393 5.26607 5.66667 6.41667 5.66667M8.5 5.66667H10.5833M8.5 5.66667H6.41667M8.5 5.66667V10.6667M10.5833 5.66667H13.3335C14.2669 5.66667 14.733 5.66667 15.0895 5.84832C15.4031 6.00811 15.6587 6.26289 15.8185 6.5765C16 6.93267 16 7.39916 16 8.33076V10.6667M6.41667 5.66667H3.66683C2.73341 5.66667 2.26635 5.66667 1.90983 5.84832C1.59623 6.00811 1.34144 6.26289 1.18166 6.5765C1 6.93302 1 7.40008 1 8.3335V10.6667M1 10.6667V13.0002C1 13.9336 1 14.4 1.18166 14.7566C1.34144 15.0702 1.59623 15.3254 1.90983 15.4852C2.266 15.6667 2.73249 15.6667 3.66409 15.6667H8.5M1 10.6667H8.5M8.5 10.6667V15.6667M8.5 10.6667H16M8.5 15.6667H13.3359C14.2675 15.6667 14.7333 15.6667 15.0895 15.4852C15.4031 15.3254 15.6587 15.0702 15.8185 14.7566C16 14.4004 16 13.9346 16 13.003V10.6667" stroke="white" stroke-width="1.5" stroke-linecap="round" stroke-linejoin="round"/>
</svg>
    