<svg width="135" height="28" viewBox="0 0 135 28" fill="none" xmlns="http://www.w3.org/2000/svg">
<path d="M27.4744 4.97916C27.4744 6.62887 26.9444 7.75111 25.5074 10.0929L16.2586 25.0599C14.9821 27.1885 12.1679 27.5625 10.3054 27.5625C8.02121 27.5625 5.31151 26.8705 5.04651 24.5811L3.34455 10.0405C2.87053 5.88444 0.1347 4.69486 0.108574 4.55271C-0.440086 3.99906 1.01181 0.239532 6.27446 0.239532C7.97643 0.239532 9.30515 0.718358 10.3129 1.83687C11.6939 3.4342 12.1716 5.7797 12.1716 9.40082L12.1194 17.8177C12.1194 17.8177 19.3266 3.43046 19.5207 3.03019C19.7222 2.61122 21.2973 -0.392667 24.8542 1.03633C26.3509 1.63486 27.4744 3.06012 27.4744 4.9829V4.97916Z" fill="#724BE8"/>
<path d="M27.3135 16.5907C27.3135 7.42941 33.6399 0.134796 42.7805 0.134796C49.3681 0.134796 52.9288 3.38183 52.9288 8.01672C52.9288 12.9696 49.5808 16.8563 39.272 16.8563C38.2083 16.8563 36.9355 16.8039 35.7113 16.7516C35.7636 17.178 35.8718 17.5521 35.9763 17.9224C36.2936 19.8939 37.7828 20.8515 40.0148 20.8515C42.62 20.8515 45.0609 20.0435 46.9943 18.5172C48.114 17.6568 50.1631 18.0795 50.1631 21.4351C50.1631 22.98 49.4726 24.2033 48.2484 25.3218C46.6547 26.8144 43.8367 27.9329 39.6938 27.9329C31.8819 27.9329 27.3135 23.6721 27.3135 16.587V16.5907ZM38.4733 11.8511C43.0977 11.7426 44.7959 10.467 44.7959 8.6564C44.7959 7.69875 44.0532 6.68499 42.2467 6.68499C39.6415 6.68499 37.6783 8.81726 36.6146 11.7987C37.3051 11.8511 37.9433 11.8511 38.4733 11.8511Z" fill="#724BE8"/>
<path d="M98.9637 16.4596C98.9637 7.29836 105.286 0 114.427 0C121.015 0 124.575 3.24704 124.575 7.88192C124.575 12.8348 121.227 16.7215 110.918 16.7215C109.855 16.7215 108.582 16.6691 107.358 16.6168C107.41 17.0432 107.518 17.4173 107.623 17.7876C107.94 19.7591 109.429 20.7167 111.661 20.7167C114.266 20.7167 116.707 19.9087 118.641 18.3824C119.76 17.522 121.81 17.9448 121.81 21.3003C121.81 22.8452 121.119 24.0685 119.895 25.187C118.301 26.6796 115.483 27.7981 111.34 27.7981C103.528 27.7981 98.96 23.5373 98.96 16.4522L98.9637 16.4596ZM110.123 11.72C114.748 11.6115 116.446 10.3359 116.446 8.52535C116.446 7.5677 115.703 6.55393 113.897 6.55393C111.292 6.55393 109.329 8.6862 108.265 11.6676C108.955 11.72 109.593 11.72 110.123 11.72Z" fill="#724BE8"/>
<path d="M84.2807 22.7181C84.2807 21.0123 84.6539 19.5758 85.5012 16.4859C86.1917 13.7177 86.6171 11.9595 86.6171 10.9457C86.6171 9.296 85.8184 8.17749 84.3852 8.17749C83.2169 8.17749 82.3137 8.70869 81.3582 9.93568L78.7008 22.6133C77.958 26.2345 76.6293 27.5662 73.8636 27.5662H72.8521C70.4074 27.5662 68.1232 26.3429 68.9182 22.6133L71.2024 11.8547C71.6802 9.61771 70.8292 8.18123 69.2355 8.18123C68.015 8.18123 67.1117 8.71243 66.1525 9.88705L63.4428 22.6171C62.7001 26.2382 61.3713 27.5699 58.6616 27.5699H57.6502C55.1532 27.5699 52.9212 26.3467 53.7162 22.6171L57.7323 3.68102C57.7845 3.41542 58.3854 0.490093 60.9981 0.564909C63.0173 0.624762 65.0365 1.41782 65.8353 3.75957C65.9958 4.18603 66.1003 4.77334 66.2085 5.35691C68.2277 2.26698 70.8329 0.190826 74.5504 0.190826C78.2678 0.190826 80.608 2.3231 81.3508 5.40928C83.4222 2.21461 86.0274 0.190826 89.7486 0.190826C94.1603 0.190826 96.87 3.59872 96.87 8.02038C96.87 10.1489 96.2318 12.8685 95.3808 15.9547C94.582 18.6705 94.1043 20.5334 94.1043 21.7081C94.1043 23.2006 94.276 23.6383 95.4965 24.0124C96.9372 24.6184 95.112 27.8879 90.1181 27.8879C86.1319 27.8879 84.2732 25.7556 84.2732 22.7218L84.2807 22.7181Z" fill="#724BE8"/>
<path d="M129.625 28C132.477 28 134.79 25.682 134.79 22.8227C134.79 19.9633 132.477 17.6454 129.625 17.6454C126.772 17.6454 124.459 19.9633 124.459 22.8227C124.459 25.682 126.772 28 129.625 28Z" fill="black"/>
</svg>
